<?xml version="1.0" encoding="UTF-8"?>
<svg id="Layer_2" data-name="Layer 2" xmlns="http://www.w3.org/2000/svg" viewBox="0 0 323.99 244.45">
  <defs>
    <style>
      .cls-1 {
        fill: #1f92bf;
        font-family: ArialMT, Arial;
        font-size: 12.79px;
      }

      .cls-2 {
        fill: none;
        stroke: #8c8c8c;
        stroke-miterlimit: 10;
        stroke-width: .34px;
      }

      .cls-3 {
        fill: #fff;
        font-family: Montserrat-Black, Montserrat;
        font-size: 14.04px;
        font-weight: 800;
        isolation: isolate;
      }

      .cls-4 {
        fill: #31b1f0;
        stroke: #000;
        stroke-linejoin: round;
        stroke-width: 2.01px;
      }
    </style>
  </defs>
  <g id="Layer_1-2" data-name="Layer 1">
    <g>
      <path class="cls-4" d="M322.98,181.04c0,2.77-13.63,13.03-13.63,13.03l-18.01-.68c-.88-3.22-23.4-19.39-23.4-19.39v-4.59c0-2.33-12.87-7.08-14.39-7.8-1.53-.72-7.16,4.84-7.16,4.84l-1-.24h-.12l-2.11,3.16-1.87,1.76-2.22.59-13.8-.36-4.33,1.17-3.51,2.46-2.81,2.92-7.84,8.07-21.88,12.29-3.27,1.87-9.59,9.83-2.34,1.52-4.1.47-12.75,4.45-7.61,4.21-5.85,4.92-9.12,11.7-5.97,6.2-24.23-6.78s.97-4.58,0-6.76c-.97-2.17-16.65-.97-18.57-6.27-1.93-5.31-.24-8.93,3.86-12.55,4.1-3.62,4.58-13.76,4.1-17.62-.48-3.86-18.1-7.72-14.96-12.07,3.14-4.35,5.55-2.9,13.75-5.31,8.2-2.41,12.3-7.72,12.3-7.72,0,0,11.34-1.45,13.51-2.9,2.17-1.45,13.02-4.34,14.71-6.27,1.69-1.93,3.62-12.31,2.17-14-1.45-1.69-8.44-6.52-10.86-8.69-2.41-2.17-1.21-10.62-1.21-10.62l-2.17-2.66s-10.24,3.62-13.93,3.86c0,0-4.17,7.96-5.37,7.96s-27.74-12.31-29.67-11.82c-1.93.48-8.69,6.27-9.89,6.52-1.21.24,0-15.2,0-15.2l-13.03-1.93v-12.31l-14.96-9.17s-18.09,4.34-20.99,2.65c-2.9-1.69-8.93-8.21-7.72-9.89,1.2-1.69,7.96-4.59,7.96-4.59l.72-8.21,1.93-.44.83-.19h0c.13.1,2.36,1.68,7.04,2.93,4.83,1.29,10.29,0,10.29,0,0,0,.16-5.15,3.38-5.31,3.22-.16,5.79-2.9,4.98-4.18-.8-1.29-2.41-6.01-2.41-6.01,0,0,5.15.38,5.79-3,.64-3.38,9.81-7.72,10.77-4.67.97,3.06,1.77,4.51,4.83,2.58,3.05-1.93,5.95-9.01,5.95-9.01,0,0,14.15,0,13.83,2.9-.32,2.9,0,4.99,0,4.99l25.24,2.25s15.92-5.79,16.73-4.02c.8,1.77-1.28,7.12,2.09,7.98s11.1-1.39,11.74-2.52c.64-1.13,3.54-9.82,3.54-9.82l17.97-10.05-1.93-5.63s-4.99-1.28-4.5-3.86c.48-2.58,12.3-16.33,12.3-16.33l6.75-1.21,1.13-7.48,10.05,4.35-4.1,4.34s21.87,11.02,22.35,13.43c.48,2.41.97,3.82.97,3.82l4.26-6.8,7.8-2.17,3.62,3.94,7.44.89,2.53,2.66,23.16-2.9v4.95s-6.76,9.05-6.76,10.74,4.83,17.7,4.1,19.65c-.72,1.95-10.61,14.01-7.96,17.88,2.66,3.86,8.44,1.93,8.44,1.93l.72-7.48,5.79-3.38,6.27-3.62,4.83,2.17,6.75,9.65,9.17,5.79h10.61l9.05,4.95,1.88.63s-5.02,14.09-7.27,16.98c-2.25,2.89,4.83,12.87,4.83,12.87.16,2.9-5.55,23.97-5.55,23.97,1.93,3.38,21.11,10.01,21.11,10.01l.48,14.96-5.07,7.36,3.38,1.33,10.55,6.29,1.39.83Z"/>
      <polyline class="cls-2" points="118.25 128.84 123.45 119.57 119.3 112.75 111.93 113.83 103.2 116.81 88.72 113.71 84.67 101.98 89.25 98.68 90 85.58 96.39 84.07 101.82 78.86 96.39 74.17 97.13 68.74 105.66 63.2 102.32 53.94"/>
      <path class="cls-2" d="M153.61,36.22l8.01,2.12,3.67,7.71,4.64,6.88.3,1.79,2.97-.67,2.74-2.45,3.58-2.18,4.66.36,1.49,1.39.81,2.1,1.11,1.44,1.91.37,3.64-1.52,2.23,1.44,5.55-7.01,2-.22,1.08,6.27,1.28,3.09,6.29,1.17,2.15,1.17s.96,8.35,1.36,8.95l2.13,4.58,4.32-1.43,1.56-.52,6.7,2.38,7.63-5.95"/>
      <polyline class="cls-2" points="209.01 57.89 198.54 81.79 197.56 89.44 194.09 103.35 190.58 115.84 185.93 120.76 179.18 123.19 174.82 125.01 170.29 125.93 164.58 125.64 162.45 127.13 160.27 130.01 155.74 131.93 152.01 136.73 154.99 144.07 150.2 147.69 156.16 158.03 123.45 161.88"/>
      <polyline class="cls-2" points="185.15 198.52 185.15 187.76 173.53 178.06 166.23 166.49 159.15 164.96 156.16 158.03"/>
      <path class="cls-2" d="M215.18,177.39l1.29-8.17,8.11-7.12,7.45-4.39,1.11-6.89-18.7-15.91-6.54-3.37.89-7.07,3.09-8.52-3.98-2.41-1.88-3.78,2.99-3.5,4.05-2.23,6.72-5.12.02-9.3s-9.21-10.68-12.18-13.51l7.67-7.14"/>
      <text class="cls-1" transform="translate(37.64 86.61)"><tspan x="0" y="0">Ağdam</tspan></text>
      <text class="cls-1" transform="translate(162.54 159.33)"><tspan x="0" y="0">Beyləqan</tspan></text>
      <text class="cls-1" transform="translate(106.57 197.96)"><tspan x="0" y="0">Füzuli</tspan></text>
      <text class="cls-1" transform="translate(237.42 125.83)"><tspan x="0" y="0">İmişli</tspan></text>
      <text class="cls-1" transform="translate(185.15 43.28)"><tspan x="0" y="0">Zərdab</tspan></text>
      <text class="cls-1" transform="translate(117.34 82.46)"><tspan x="0" y="0">Ağcabədi</tspan></text>
      <text class="cls-3" transform="translate(127.07 109.88)"><tspan x="0" y="0">ARAN RETSİ</tspan></text>
    </g>
  </g>
</svg>