<svg width="44" height="67" viewBox="0 0 44 67" fill="none" xmlns="http://www.w3.org/2000/svg">
<g clip-path="url(#clip0_46_3)">
<path d="M35.1943 24.0508L30.5067 30.313L12.5443 54.3081L24.6125 30.313H9.74951L14.4371 24.0508L32.4413 0L20.3458 24.0508H35.1943Z" fill="white"/>
<path d="M30.9917 57.5282C30.9917 58.6384 30.2898 59.5827 29.3121 59.9283C29.1615 59.9672 29.0099 60.0052 28.8567 60.0419C26.7634 60.5431 24.4403 60.8221 21.9941 60.8221C19.5479 60.8221 17.2167 60.5422 15.1209 60.0393C14.9795 60.0052 14.8391 59.9707 14.6995 59.9344C13.7124 59.5935 13.0024 58.6449 13.0024 57.5282C13.0024 56.1246 14.1232 54.9872 15.5061 54.9872C15.6533 54.9872 15.7976 55.0001 15.9381 55.0248C15.9862 55.0347 16.0339 55.0446 16.082 55.0546C17.9467 55.4365 19.9736 55.646 22.0924 55.646C24.0197 55.646 25.8708 55.4727 27.5934 55.1539C27.8722 55.1025 28.1476 55.0468 28.4191 54.988C28.4421 54.9876 28.4647 54.9872 28.4877 54.9872C29.8706 54.9872 30.9913 56.1246 30.9913 57.5282H30.9917Z" fill="white"/>
<path d="M31.1833 51.4707C31.1833 52.5818 30.481 53.5257 29.5029 53.8713C29.3535 53.9102 29.2007 53.9491 29.0474 53.9858C26.9558 54.4869 24.6323 54.7647 22.1848 54.7647C19.8787 54.7647 17.6798 54.5158 15.6819 54.0674L19.1513 49.4313C20.1656 49.5341 21.2122 49.5885 22.284 49.5885C24.2113 49.5885 26.0616 49.4157 27.7841 49.0974C28.0633 49.0451 28.3392 48.9906 28.6107 48.9323C28.6337 48.9306 28.6567 48.9306 28.6797 48.9306C30.0613 48.9306 31.1829 50.0689 31.1829 51.4712L31.1833 51.4707Z" fill="white"/>
<path d="M29.9719 63.8245C29.9719 64.9175 29.2985 65.8506 28.3502 66.2203C28.0748 66.2804 27.796 66.337 27.5138 66.3893C25.7861 66.7102 23.9286 66.8848 21.9945 66.8848C19.9596 66.8848 18.0097 66.6917 16.2063 66.3383C16.1433 66.3262 16.0807 66.3137 16.0181 66.3007C16.0181 66.3007 16.0181 66.3007 16.0177 66.3007C14.9034 66.0329 14.0742 65.0168 14.0742 63.8038C14.0742 62.3868 15.206 61.2382 16.6021 61.2382C16.6434 61.2382 16.6842 61.239 16.7247 61.2412C16.9183 61.2762 17.1133 61.309 17.3099 61.3401C18.8252 61.5799 20.4303 61.7086 22.0929 61.7086C23.7554 61.7086 25.2575 61.5881 26.7298 61.3626C26.9384 61.3306 27.1452 61.2965 27.3504 61.2606C27.3814 61.2593 27.4125 61.2589 27.4436 61.2589C28.8397 61.2589 29.9715 62.4076 29.9715 63.8245H29.9719Z" fill="white"/>
<path d="M13.5175 47.0074C7.81096 44.5174 3.36898 39.6151 1.43444 33.5646C1.03817 32.3252 0.747455 31.0396 0.57124 29.7168C0.494625 29.1263 0.856419 28.5613 1.42082 28.398C1.94904 28.2463 2.53259 28.163 3.14679 28.163C3.76099 28.163 4.35646 28.2485 4.88809 28.404C5.33586 28.534 5.66871 28.9146 5.7415 29.3829C5.90026 30.4141 6.15309 31.4163 6.49148 32.3758C6.52382 32.473 6.5583 32.5702 6.59491 32.6652C6.61959 32.733 6.64471 32.8013 6.67152 32.8674C8.33067 37.1735 11.6894 40.613 15.9109 42.338L13.5167 47.0074H13.5175Z" fill="white"/>
<path d="M42.7888 28.4645C43.337 28.6464 43.6856 29.1972 43.6073 29.7773C43.4345 31.056 43.1531 32.2997 42.7743 33.4981C39.9651 42.3725 31.7664 48.7937 22.0929 48.7937C21.3237 48.7937 20.5657 48.7531 19.8174 48.6732L23.7137 43.4676C30.0519 42.8421 35.3396 38.5904 37.5423 32.7831C37.959 31.6837 38.2659 30.5294 38.4481 29.3332C38.5222 28.8451 38.8784 28.4511 39.3522 28.3366C39.8178 28.2239 40.3218 28.1625 40.8474 28.1625C41.5463 28.1625 42.2061 28.2705 42.7888 28.4641V28.4645Z" fill="white"/>
<path d="M23.0077 9.97344C22.7055 9.95616 22.4012 9.94838 22.093 9.94838C14.8035 9.94838 8.61637 14.7323 6.40814 21.3729C6.04465 22.4645 5.79011 23.6046 5.65434 24.7835C5.599 25.2768 5.25423 25.6885 4.78177 25.8168C4.27866 25.9529 3.72746 26.0268 3.14731 26.0268C2.49864 26.0268 1.88444 25.9335 1.33323 25.7667C0.787986 25.5995 0.430023 25.0634 0.487484 24.4889C0.61773 23.1877 0.858643 21.9211 1.20341 20.6977C3.79386 11.4651 12.1666 4.70441 22.093 4.70441C23.6334 4.70441 25.1359 4.8677 26.5865 5.1783L23.0077 9.97387V9.97344Z" fill="white"/>
<path d="M43.6922 24.4228C43.7483 24.9671 43.4363 25.492 42.9286 25.6765C42.3122 25.9002 41.6035 26.0268 40.8472 26.0268C40.3607 26.0268 39.8942 25.9745 39.4587 25.8773C38.9603 25.7663 38.5955 25.3382 38.5376 24.8237C38.3993 23.5904 38.1295 22.3993 37.7413 21.2619C36.2026 16.7363 32.8115 13.0886 28.4866 11.2496L30.8404 6.56677C36.7253 9.19675 41.2396 14.4001 43.0039 20.7725C43.3299 21.9514 43.5628 23.1718 43.6917 24.4224L43.6922 24.4228Z" fill="white"/>
</g>
<defs>
<clipPath id="clip0_46_3">
<rect width="43.2178" height="66.8848" fill="white" transform="translate(0.481201)"/>
</clipPath>
</defs>
</svg>
