<svg width="59" height="65" viewBox="0 0 59 65" fill="none" xmlns="http://www.w3.org/2000/svg">
<g clip-path="url(#clip0_172_2659)">
<path d="M38.119 16.4857L34.992 20.6789L23.0081 36.7466L31.0597 20.6789H21.1438L24.2714 16.4857L36.2825 0.380859L28.213 16.4857H38.119Z" fill="#D0B787"/>
<path d="M35.3158 38.9024C35.3158 39.6461 34.8474 40.2783 34.1949 40.5095C34.0947 40.5355 33.9934 40.5608 33.8909 40.5856C32.4945 40.9212 30.9446 41.1081 29.3125 41.1081C27.6804 41.1081 26.1253 40.9206 24.7271 40.5838C24.6327 40.5608 24.5389 40.5378 24.4457 40.5137C23.7874 40.2854 23.3139 39.6502 23.3139 38.9024C23.3139 37.9629 24.0619 37.2009 24.9842 37.2009C25.0826 37.2009 25.1787 37.2098 25.2725 37.2263C25.3043 37.2328 25.3368 37.2399 25.3686 37.2463C26.6128 37.5023 27.9647 37.6421 29.3785 37.6421C30.6644 37.6421 31.8993 37.5259 33.0485 37.313C33.2344 37.2782 33.4179 37.2416 33.5991 37.2021C33.6142 37.2021 33.6298 37.2015 33.6449 37.2015C34.5672 37.2015 35.3152 37.9635 35.3152 38.903L35.3158 38.9024Z" fill="#D0B787"/>
<path d="M35.4438 34.8464C35.4438 35.5901 34.9754 36.2223 34.3229 36.4541C34.2234 36.4801 34.1215 36.506 34.019 36.5308C32.6237 36.8664 31.0738 37.0521 29.4405 37.0521C27.9022 37.0521 26.4351 36.8858 25.1024 36.585L27.4171 33.4805C28.0939 33.5495 28.7921 33.5861 29.5071 33.5861C30.793 33.5861 32.0274 33.4705 33.1766 33.257C33.363 33.2216 33.5471 33.1856 33.7283 33.1467C33.7434 33.1455 33.759 33.1455 33.7741 33.1455C34.6958 33.1455 35.4438 33.9075 35.4438 34.8464Z" fill="#D0B787"/>
<path d="M34.6357 43.1185C34.6357 43.8504 34.1864 44.475 33.5536 44.7227C33.3701 44.7628 33.1836 44.8005 32.9955 44.8359C31.8427 45.0506 30.6038 45.1673 29.3133 45.1673C27.9556 45.1673 26.6546 45.0382 25.4516 44.8011C25.4099 44.7928 25.3676 44.7846 25.3259 44.7757C24.5825 44.5964 24.0296 43.9159 24.0296 43.1037C24.0296 42.1548 24.7846 41.3857 25.7162 41.3857C25.7434 41.3857 25.7706 41.3863 25.7978 41.3875C25.9269 41.4111 26.0572 41.4329 26.1886 41.4536C27.1995 41.614 28.2705 41.7007 29.3793 41.7007C30.488 41.7007 31.4907 41.6199 32.4727 41.4689C32.6116 41.4477 32.75 41.4247 32.8866 41.4005C32.9075 41.3999 32.9283 41.3993 32.9486 41.3993C33.8801 41.3993 34.6351 42.1684 34.6351 43.1173L34.6357 43.1185Z" fill="#D0B787"/>
<path d="M23.6576 31.8574C19.8503 30.1901 16.8872 26.9074 15.5961 22.8563C15.3321 22.0265 15.1376 21.1654 15.02 20.2796C14.9691 19.8845 15.2105 19.5058 15.5868 19.3967C15.9394 19.2953 16.3285 19.2393 16.7384 19.2393C17.1483 19.2393 17.5455 19.2965 17.9004 19.4003C18.1991 19.4875 18.4214 19.7423 18.4701 20.0555C18.576 20.7461 18.7445 21.4173 18.9703 22.0595C18.9917 22.1244 19.0149 22.1899 19.0392 22.2536C19.056 22.299 19.0722 22.3444 19.0901 22.3886C20.1971 25.272 22.4377 27.5751 25.2544 28.7304L23.657 31.8568L23.6576 31.8574Z" fill="#D0B787"/>
<path d="M43.1862 19.4411C43.5521 19.5631 43.7849 19.9317 43.7322 20.3204C43.617 21.1768 43.4288 22.0095 43.1764 22.8122C41.3023 28.7547 35.8322 33.0541 29.3785 33.0541C28.865 33.0541 28.3595 33.027 27.8605 32.9733L30.46 29.4878C34.6888 29.069 38.2164 26.2222 39.6858 22.3333C39.9637 21.5973 40.1686 20.8241 40.2902 20.0232C40.34 19.6964 40.5774 19.4328 40.8935 19.3555C41.2044 19.2801 41.5402 19.2388 41.8911 19.2388C42.3571 19.2388 42.7971 19.3113 43.1862 19.4405V19.4411Z" fill="#D0B787"/>
<path d="M29.9892 7.05931C29.7877 7.04751 29.5845 7.04221 29.3789 7.04221C24.5156 7.04221 20.3882 10.2458 18.9148 14.6921C18.6722 15.4228 18.5025 16.1866 18.4116 16.9757C18.3746 17.306 18.1447 17.582 17.8292 17.6675C17.4934 17.7583 17.1258 17.8079 16.739 17.8079C16.3059 17.8079 15.8966 17.7453 15.5284 17.6333C15.1648 17.5212 14.9257 17.1626 14.9639 16.7775C15.0507 15.9058 15.2117 15.0584 15.4415 14.2386C17.1703 8.0572 22.7562 3.52954 29.3784 3.52954C30.406 3.52954 31.4082 3.63865 32.3762 3.84684L29.9886 7.05813L29.9892 7.05931Z" fill="#D0B787"/>
<path d="M43.7889 16.7346C43.8265 17.099 43.6181 17.4506 43.2794 17.5738C42.8684 17.7236 42.3953 17.8085 41.8911 17.8085C41.5668 17.8085 41.2554 17.7732 40.9647 17.7083C40.6324 17.634 40.3887 17.3473 40.3504 17.0029C40.2578 16.1772 40.0783 15.3793 39.819 14.6179C38.7924 11.5877 36.5299 9.14483 33.6443 7.91339L35.2145 4.77759C39.1404 6.53864 42.1522 10.023 43.3298 14.29C43.5475 15.0797 43.7026 15.8965 43.7889 16.734V16.7346Z" fill="#D0B787"/>
<path d="M1.56106 52.2796C1.23916 52.2796 0.961254 52.4053 0.729089 52.6553C0.496346 52.906 0.379974 53.1956 0.379974 53.5235V58.037C0.379974 58.4014 0.491714 58.6981 0.715773 58.9258C0.939253 59.154 1.23047 59.2678 1.58827 59.2678H5.79676C5.92124 59.2678 6.02198 59.1652 6.02198 59.0384V57.7568C6.02198 57.63 5.92124 57.5274 5.79676 57.5274H2.05839V53.9487H6.8771V59.0378C6.8771 59.1646 6.97784 59.2672 7.10232 59.2672H8.54336V52.2791H1.56106V52.2796Z" fill="#D0B787"/>
<path d="M12.9713 57.5631H17.3042C17.4293 57.5631 17.5306 57.6669 17.53 57.7943C17.5277 58.1216 17.5248 58.7167 17.5265 59.0446C17.5271 59.172 17.4258 59.2758 17.3007 59.2758L9.73137 59.2657C9.53568 59.2657 9.43321 59.0292 9.56405 58.8812L13.9196 53.9749L9.61442 53.9313C9.49226 53.9301 9.39384 53.8304 9.39094 53.706C9.384 53.3928 9.38457 52.8261 9.39152 52.5123C9.39442 52.3873 9.49458 52.2876 9.61732 52.2876H17.0738C17.2689 52.2876 17.372 52.5223 17.2423 52.6704L12.9707 57.5631H12.9713Z" fill="#D0B787"/>
<path d="M18.5733 54.9173H24.8336V53.9637H18.7088C18.5096 53.9637 18.3487 53.7991 18.3487 53.5968V53.2111C18.3487 52.7045 18.7522 52.2935 19.2495 52.2935H25.302C25.6812 52.2935 25.9898 52.4144 26.2266 52.6556C26.464 52.8968 26.515 53.1421 26.515 53.529V57.944C26.515 58.292 26.3916 58.5987 26.145 58.8641C25.8984 59.1295 25.6042 59.2628 25.2632 59.2628H19.6299C19.2698 59.2628 18.9664 59.1395 18.7192 58.893C18.4726 58.6465 18.3493 58.3398 18.3493 57.9729V55.1468C18.3493 55.02 18.45 54.9173 18.5745 54.9173H18.5733ZM20.0143 56.6005V57.533H24.7885V56.6005H20.0143Z" fill="#D0B787"/>
<path d="M35.2219 53.9631H28.998V59.0097C28.998 59.1365 28.8973 59.2392 28.7734 59.2392L27.5321 59.2415C27.4076 59.2415 27.3063 59.1389 27.3063 59.0121V52.5087C27.3063 52.3819 27.407 52.2793 27.5315 52.2793H35.2207C35.3452 52.2793 35.446 52.3819 35.446 52.5081L35.4477 53.7325C35.4477 53.8593 35.347 53.9619 35.2225 53.9619L35.2219 53.9631Z" fill="#D0B787"/>
<path d="M37.7272 59.2758H36.5114C36.3869 59.2758 36.2862 59.1732 36.2862 59.0464V55.1928C36.2862 55.066 36.3869 54.9634 36.5114 54.9634H37.7272C37.8517 54.9634 37.9524 55.066 37.9524 55.1928V59.0464C37.9524 59.1732 37.8517 59.2758 37.7272 59.2758Z" fill="#D0B787"/>
<path d="M49.1844 59.2439H47.9685C47.844 59.2439 47.7433 59.1413 47.7433 59.0145V52.4999C47.7433 52.3731 47.844 52.2705 47.9685 52.2705H49.1844C49.3088 52.2705 49.4096 52.3731 49.4096 52.4999V59.0145C49.4096 59.1413 49.3088 59.2439 49.1844 59.2439Z" fill="#D0B787"/>
<path d="M43.4514 60.9182H42.2801C42.1557 60.9182 42.0549 60.8155 42.0549 60.6887V59.1748H43.676V60.6887C43.676 60.8155 43.5753 60.9182 43.4508 60.9182H43.4514Z" fill="#D0B787"/>
<path d="M37.7469 53.9996H36.4917C36.3631 53.9996 36.2589 53.8935 36.2589 53.7625V52.4839C36.2589 52.353 36.3631 52.2468 36.4917 52.2468H37.7469C37.8754 52.2468 37.9796 52.353 37.9796 52.4839V53.7625C37.9796 53.8935 37.8754 53.9996 37.7469 53.9996Z" fill="#D0B787"/>
<path d="M46.9169 57.9665C46.9169 58.3209 46.7948 58.6223 46.5505 58.8712C46.3061 59.1201 46.0051 59.2445 45.6484 59.2445L38.9985 59.2504C38.874 59.2504 38.7727 59.1478 38.7727 59.0204V57.7795C38.7727 57.6527 38.874 57.5495 38.9985 57.5495H45.2721V56.6023H40.0273C39.6509 56.6023 39.3458 56.4826 39.1108 56.2432C38.8757 56.0037 38.7582 55.6929 38.7582 55.3096V53.5833C38.7582 53.2389 38.8803 52.9346 39.1247 52.6715C39.369 52.4085 39.6602 52.2764 39.9989 52.2764H46.7155C46.8399 52.2764 46.9413 52.3796 46.9413 52.5064V53.7325C46.9413 53.8593 46.8399 53.9625 46.7155 53.9625H40.4418V54.925L45.6478 54.9185C46.0051 54.9185 46.3056 55.0406 46.5499 55.2848C46.7942 55.5289 46.9164 55.8327 46.9164 56.1966V57.9659L46.9169 57.9665Z" fill="#D0B787"/>
<path d="M58.1513 60.913L56.9355 60.91C56.8116 60.91 56.7109 60.8074 56.7109 60.6806V59.2486H51.4834C51.1106 59.2486 50.8078 59.1301 50.575 58.893C50.3423 58.6559 50.2259 58.3475 50.2259 57.9677V53.555C50.2259 53.2135 50.3469 52.9122 50.5895 52.6509C50.8315 52.3902 51.1204 52.2593 51.4556 52.2593H58.1525C58.277 52.2593 58.3777 52.3619 58.3777 52.4887V60.6835C58.3777 60.8103 58.2764 60.913 58.1519 60.913H58.1513ZM56.7416 57.5418V54.1925C56.7416 54.0657 56.6408 53.9631 56.5164 53.9631H52.1568C52.0323 53.9631 51.9315 54.0657 51.9315 54.1925V57.3124C51.9315 57.4392 52.0323 57.5418 52.1568 57.5418H56.7416Z" fill="#D0B787"/>
<path d="M2.95585 63.8639C2.97149 63.8981 2.97206 63.927 2.95759 63.95C2.94312 63.973 2.91648 63.9842 2.87827 63.9842H2.61195C2.55579 63.9842 2.51758 63.9565 2.49731 63.9016L2.3051 63.4516H1.0169L0.824688 63.9016C0.80674 63.9565 0.768529 63.9842 0.710053 63.9842H0.466888C0.428677 63.9842 0.402045 63.973 0.38757 63.95C0.373096 63.927 0.373675 63.8987 0.389307 63.8639L1.40134 61.6581C1.42392 61.6056 1.46328 61.5791 1.51944 61.5791H1.82977C1.88593 61.5791 1.92414 61.6056 1.9444 61.6581L2.95643 63.8639H2.95585ZM1.16164 63.1184H2.15978L1.66071 61.9536L1.16164 63.1184Z" fill="#D0B787"/>
<path d="M45.0182 61.9858C44.9562 61.9858 44.9249 61.9445 44.9249 61.8625V61.7021C44.9249 61.6201 44.9562 61.5789 45.0182 61.5789H45.2167C45.2787 61.5789 45.31 61.6201 45.31 61.7021V61.8625C45.31 61.9445 45.2787 61.9858 45.2167 61.9858H45.0182ZM45.0182 63.9751C44.9562 63.9751 44.9249 63.9415 44.9249 63.8754V62.3161C44.9249 62.2494 44.9562 62.2164 45.0182 62.2164H45.2167C45.2787 62.2164 45.31 62.2494 45.31 62.3161V63.8754C45.31 63.9421 45.2787 63.9751 45.2167 63.9751H45.0182Z" fill="#D0B787"/>
<path d="M58.0367 61.9858C57.9748 61.9858 57.9435 61.9445 57.9435 61.8625V61.7021C57.9435 61.6201 57.9748 61.5789 58.0367 61.5789H58.2353C58.2972 61.5789 58.3285 61.6201 58.3285 61.7021V61.8625C58.3285 61.9445 58.2972 61.9858 58.2353 61.9858H58.0367ZM58.0367 63.9751C57.9748 63.9751 57.9435 63.9415 57.9435 63.8754V62.3161C57.9435 62.2494 57.9748 62.2164 58.0367 62.2164H58.2353C58.2972 62.2164 58.3285 62.2494 58.3285 62.3161V63.8754C58.3285 63.9421 58.2972 63.9751 58.2353 63.9751H58.0367Z" fill="#D0B787"/>
<path d="M6.9941 63.8571C6.9941 63.932 6.964 63.9698 6.90321 63.9698H6.68552C6.62473 63.9698 6.59462 63.932 6.59462 63.8571V61.6915C6.59462 61.6166 6.62473 61.5789 6.68552 61.5789H6.90321C6.964 61.5789 6.9941 61.6166 6.9941 61.6915V63.8571Z" fill="#D0B787"/>
<path d="M8.06648 63.9645C7.86442 63.9645 7.71041 63.9096 7.60446 63.7993C7.49851 63.6891 7.44525 63.5322 7.44525 63.3287V62.2146C7.44525 62.0112 7.49851 61.8543 7.60446 61.744C7.71041 61.6337 7.86442 61.5789 8.06648 61.5789H9.5272C9.72926 61.5789 9.88384 61.6337 9.99095 61.744C10.0981 61.8543 10.1513 62.0112 10.1513 62.2146V63.3287C10.1513 63.5322 10.0981 63.6896 9.99095 63.7993C9.88384 63.9096 9.72926 63.9645 9.5272 63.9645H9.01829V64.2788C9.01829 64.3466 8.98471 64.3809 8.91813 64.3809H8.67902C8.61244 64.3809 8.57886 64.3466 8.57886 64.2788V63.9645H8.06648ZM9.41488 63.5723C9.51157 63.5723 9.58625 63.5457 9.63778 63.4932C9.68931 63.4408 9.71478 63.3653 9.71478 63.2662V62.276C9.71478 62.1775 9.68931 62.1014 9.63778 62.0489C9.58625 61.9964 9.51215 61.9705 9.41488 61.9705H8.18169C8.08442 61.9705 8.01032 61.9964 7.95879 62.0489C7.90726 62.1014 7.88121 62.1769 7.88121 62.276V63.2662C7.88121 63.3653 7.90726 63.4408 7.95879 63.4932C8.01032 63.5457 8.08442 63.5723 8.18169 63.5723H9.41488Z" fill="#D0B787"/>
<path d="M4.99323 63.9011V64.2727C4.99323 64.3405 4.95965 64.3747 4.89307 64.3747H4.65396C4.58738 64.3747 4.5538 64.3405 4.5538 64.2727V63.9011H4.99323Z" fill="#D0B787"/>
<path d="M5.69325 62.3855C5.65678 62.3855 5.63883 62.3666 5.63883 62.3283V62.208C5.63883 62.1171 5.61972 62.0517 5.58151 62.0116C5.5433 61.9715 5.47961 61.9514 5.39045 61.9514H4.15495C4.0681 61.9514 4.00441 61.9726 3.96389 62.0145C3.92336 62.057 3.9031 62.1242 3.9031 62.2168V63.3067C3.9031 63.3993 3.92336 63.4671 3.96389 63.509C4.00441 63.5515 4.0681 63.5721 4.15495 63.5721H5.39045C5.47904 63.5721 5.54272 63.552 5.58151 63.5119C5.6203 63.4718 5.63883 63.4064 5.63883 63.3155V63.1952C5.63883 63.1593 5.65678 63.1416 5.69325 63.1416H6.014C6.05047 63.1416 6.06842 63.1593 6.06842 63.1952V63.3727C6.06842 63.5585 6.02152 63.7007 5.92773 63.7997C5.83394 63.8988 5.6973 63.9484 5.51725 63.9484H4.03336C3.85562 63.9484 3.72014 63.8988 3.62577 63.7997C3.53198 63.7007 3.48508 63.5579 3.48508 63.3727V62.1502C3.48508 61.9644 3.53198 61.8228 3.62577 61.7243C3.71956 61.6264 3.85562 61.5769 4.03336 61.5769H5.51725C5.69673 61.5769 5.83394 61.6259 5.92773 61.7243C6.02152 61.8228 6.06842 61.9644 6.06842 62.1502V62.3277C6.06842 62.3654 6.05047 62.3849 6.014 62.3849H5.69325V62.3855Z" fill="#D0B787"/>
<path d="M37.4957 62.3855C37.4592 62.3855 37.4412 62.3666 37.4412 62.3283V62.208C37.4412 62.1171 37.4221 62.0517 37.3839 62.0116C37.3457 61.9715 37.282 61.9514 37.1929 61.9514H35.9574C35.8705 61.9514 35.8068 61.9726 35.7663 62.0145C35.7258 62.057 35.7055 62.1242 35.7055 62.2168V63.3067C35.7055 63.3993 35.7258 63.4671 35.7663 63.509C35.8068 63.5515 35.8705 63.5721 35.9574 63.5721H37.1929C37.2815 63.5721 37.3451 63.552 37.3839 63.5119C37.4227 63.4718 37.4412 63.4064 37.4412 63.3155V63.1952C37.4412 63.1593 37.4592 63.1416 37.4957 63.1416H37.8164C37.8529 63.1416 37.8708 63.1593 37.8708 63.1952V63.3727C37.8708 63.5585 37.8239 63.7007 37.7301 63.7997C37.6364 63.8988 37.4997 63.9484 37.3197 63.9484H35.8358C35.658 63.9484 35.5226 63.8988 35.4282 63.7997C35.3344 63.7007 35.2875 63.5579 35.2875 63.3727V62.1502C35.2875 61.9644 35.3344 61.8228 35.4282 61.7243C35.522 61.6264 35.658 61.5769 35.8358 61.5769H37.3197C37.4991 61.5769 37.6364 61.6259 37.7301 61.7243C37.8239 61.8222 37.8708 61.9644 37.8708 62.1502V62.3277C37.8708 62.3654 37.8529 62.3849 37.8164 62.3849H37.4957V62.3855Z" fill="#D0B787"/>
<path d="M12.6483 63.9673C12.4653 63.9673 12.3304 63.9237 12.2447 63.8358C12.1585 63.7485 12.1156 63.6111 12.1156 63.4247V63.2714C12.1156 63.2325 12.1359 63.2136 12.1758 63.2136H12.5342C12.5742 63.2136 12.5944 63.2331 12.5944 63.2714V63.3705C12.5944 63.4454 12.6118 63.5014 12.6465 63.5374C12.6813 63.5739 12.7363 63.5922 12.8121 63.5922H14.0916C14.1698 63.5922 14.2271 63.5734 14.2642 63.5362C14.3012 63.4985 14.3192 63.4401 14.3192 63.3604V63.1965C14.3192 63.1169 14.3006 63.0585 14.2642 63.0207C14.2271 62.983 14.1698 62.9647 14.0916 62.9647H12.6981C12.5151 62.9647 12.3802 62.9211 12.2945 62.8332C12.2083 62.7459 12.1654 62.6097 12.1654 62.4257V62.1184C12.1654 61.9344 12.2083 61.7981 12.2945 61.7109C12.3802 61.6236 12.5151 61.5793 12.6981 61.5793H14.1866C14.3695 61.5793 14.5044 61.623 14.5901 61.7109C14.6758 61.7987 14.7192 61.9344 14.7192 62.1184V62.2582C14.7192 62.2989 14.699 62.3195 14.659 62.3195H14.3006C14.2607 62.3195 14.2404 62.3 14.2404 62.2617V62.1762C14.2404 62.0989 14.2225 62.0423 14.1866 62.0075C14.1507 61.9721 14.094 61.9544 14.0158 61.9544H12.8619C12.7838 61.9544 12.7264 61.9727 12.6894 62.0093C12.6523 62.0458 12.6344 62.1037 12.6344 62.1833V62.3608C12.6344 62.4404 12.6529 62.4982 12.6894 62.5348C12.7264 62.5713 12.7838 62.5896 12.8619 62.5896H14.2555C14.4384 62.5896 14.5733 62.6333 14.659 62.7211C14.7447 62.8084 14.7881 62.9458 14.7881 63.1322V63.4259C14.7881 63.6123 14.7453 63.7497 14.659 63.837C14.5728 63.9249 14.4384 63.9685 14.2555 63.9685H12.6477L12.6483 63.9673Z" fill="#D0B787"/>
<path d="M20.9223 61.5789C20.9588 61.5789 20.9773 61.5983 20.9773 61.6372V63.9309C20.9773 63.9721 20.9588 63.9928 20.9223 63.9928H20.6108C20.5743 63.9928 20.5558 63.9721 20.5558 63.9309V63.0421H18.7697V63.9309C18.7697 63.9721 18.7523 63.9928 18.7176 63.9928H18.4032C18.3685 63.9928 18.3511 63.9721 18.3511 63.9309V61.6372C18.3511 61.5983 18.3685 61.5789 18.4032 61.5789H18.7176C18.7523 61.5789 18.7697 61.5983 18.7697 61.6372V62.5915H20.5558V61.6372C20.5558 61.5983 20.5743 61.5789 20.6108 61.5789H20.9223Z" fill="#D0B787"/>
<path d="M21.4752 63.9816C21.4428 63.9816 21.426 63.9609 21.426 63.9196V61.6372C21.426 61.5983 21.4422 61.5789 21.4752 61.5789H22.0328C22.071 61.5789 22.0988 61.5971 22.1161 61.6337L22.9191 63.4242H22.9394L23.7337 61.6337C23.7511 61.5971 23.7777 61.5789 23.8142 61.5789H24.3266C24.3613 61.5789 24.3787 61.5983 24.3787 61.6372V63.9196C24.3787 63.9609 24.3613 63.9816 24.3266 63.9816H24.0331C23.9983 63.9816 23.981 63.9609 23.981 63.9196V62.2754H23.9636L23.2318 63.9261C23.2127 63.9627 23.1849 63.981 23.1484 63.981H22.7015C22.665 63.981 22.6372 63.9627 22.6181 63.9261L21.8863 62.2754H21.866V63.9196C21.866 63.9609 21.8498 63.9816 21.8168 63.9816H21.4752Z" fill="#D0B787"/>
<path d="M41.5447 63.9816C41.5117 63.9816 41.4949 63.9609 41.4949 63.9196V61.6372C41.4949 61.5983 41.5111 61.5789 41.5447 61.5789H42.0635C42.1023 61.5789 42.1306 61.5971 42.148 61.6337L42.9615 63.4242H42.9817L43.7859 61.6337C43.8033 61.5971 43.8305 61.5789 43.8675 61.5789H44.3405C44.3753 61.5789 44.3932 61.5983 44.3932 61.6372V63.9196C44.3932 63.9609 44.3759 63.9816 44.3405 63.9816H44.0887C44.054 63.9816 44.036 63.9609 44.036 63.9196V62.2754H44.0186L43.2318 63.9261C43.2121 63.9627 43.1844 63.981 43.1473 63.981H42.786C42.749 63.981 42.7206 63.9627 42.7015 63.9261L41.9147 62.2754H41.8944V63.9196C41.8944 63.9609 41.8776 63.9816 41.8446 63.9816H41.5441H41.5447Z" fill="#D0B787"/>
<path d="M46.9676 63.978C46.9328 63.978 46.9155 63.9592 46.9155 63.9208V62.9271L45.8426 61.6803C45.827 61.6591 45.8195 61.6414 45.8195 61.6266C45.8195 61.5948 45.8426 61.5789 45.8889 61.5789H46.208C46.2444 61.5789 46.2757 61.5924 46.3006 61.6201L47.1065 62.4275H47.1268L47.9327 61.6201C47.9576 61.593 47.9888 61.5789 48.0253 61.5789H48.3443C48.3634 61.5789 48.3791 61.583 48.3906 61.5912C48.4022 61.5995 48.408 61.6101 48.408 61.6231C48.408 61.642 48.3993 61.6608 48.382 61.6803L47.3149 62.9271V63.9208C47.3149 63.9586 47.2976 63.978 47.2628 63.978H46.967H46.9676Z" fill="#D0B787"/>
<path d="M50.0829 63.978C50.0482 63.978 50.0308 63.9592 50.0308 63.9208V62.9271L48.958 61.6803C48.9424 61.6591 48.9348 61.6414 48.9348 61.6266C48.9348 61.5948 48.958 61.5789 49.0043 61.5789H49.3233C49.3598 61.5789 49.391 61.5924 49.4159 61.6201L50.2219 62.4275H50.2421L51.048 61.6201C51.0729 61.593 51.1042 61.5789 51.1407 61.5789H51.4597C51.4788 61.5789 51.4944 61.583 51.506 61.5912C51.5176 61.5995 51.5234 61.6101 51.5234 61.6231C51.5234 61.642 51.5147 61.6608 51.4973 61.6803L50.4303 62.9271V63.9208C50.4303 63.9586 50.4129 63.978 50.3782 63.978H50.0823H50.0829Z" fill="#D0B787"/>
<path d="M57.4137 61.5789C57.4444 61.5789 57.4595 61.5965 57.4595 61.6325V61.9268C57.4595 61.9628 57.4444 61.9805 57.4137 61.9805H56.5476V63.9662C56.5476 64.004 56.5326 64.0234 56.5019 64.0234H56.0896C56.059 64.0234 56.0439 64.0046 56.0439 63.9662V61.9805H55.2224C55.1899 61.9805 55.1737 61.9628 55.1737 61.9268V61.6325C55.1737 61.5965 55.1899 61.5789 55.2224 61.5789H57.4132H57.4137Z" fill="#D0B787"/>
<path d="M27.2352 61.7368C27.3238 61.8423 27.3683 61.9974 27.3683 62.2015V63.3616C27.3683 63.5656 27.3238 63.7213 27.234 63.8281C27.1443 63.9348 27.0152 63.9879 26.8455 63.9879H24.9274C24.8944 63.9879 24.8782 63.9673 24.8782 63.926V61.6365C24.8782 61.5976 24.8944 61.5781 24.9274 61.5781H26.8455C27.0169 61.5781 27.1472 61.6312 27.2358 61.7368H27.2352ZM26.882 62.2811C26.882 62.1826 26.8629 62.1101 26.8241 62.0641C26.7853 62.0181 26.724 61.9951 26.6394 61.9951H25.3188V63.5686H26.6394C26.724 63.5686 26.7859 63.5456 26.8241 63.4996C26.8629 63.4536 26.882 63.3816 26.882 63.2826V62.2805V62.2811Z" fill="#D0B787"/>
<path d="M17.4432 62.622V62.3413C17.4432 62.2257 17.4212 62.1549 17.3801 62.093C17.3436 62.0387 17.2695 61.9721 17.1746 61.9721H15.9118C15.8175 61.9721 15.7445 62.0311 15.7121 62.0741C15.6797 62.1172 15.6548 62.1708 15.6548 62.2522V62.2758C15.6548 62.3289 15.6334 62.3554 15.5894 62.3554H15.3254C15.279 62.3554 15.2565 62.3289 15.2565 62.2758V62.2104C15.2565 62.0045 15.3045 61.8476 15.4006 61.7397C15.4967 61.6318 15.6403 61.5781 15.8325 61.5781H17.2805C17.4675 61.5781 17.6105 61.6395 17.7107 61.7633C17.8103 61.8866 17.8606 62.0617 17.8606 62.29V63.2826C17.8606 63.5102 17.8108 63.6848 17.7107 63.8069C17.6111 63.9284 17.4675 63.9897 17.2805 63.9897H15.8325C15.6455 63.9897 15.5025 63.9289 15.4024 63.8069C15.3028 63.6854 15.2524 63.5102 15.2524 63.2826V62.7064C15.2524 62.6503 15.2744 62.622 15.3178 62.622H17.4432ZM17.1746 63.5539C17.2695 63.5539 17.3378 63.5279 17.3801 63.4766C17.4224 63.4253 17.4432 63.3415 17.4432 63.2259V63.039H15.6357V63.2259C15.6357 63.3415 15.6559 63.4247 15.6971 63.4766C15.7382 63.5279 15.8059 63.5539 15.9003 63.5539H17.1746Z" fill="#D0B787"/>
<path d="M40.5931 62.622V62.3413C40.5931 62.2257 40.5711 62.1549 40.53 62.093C40.4935 62.0387 40.4194 61.9721 40.3245 61.9721H39.0618C38.9674 61.9721 38.8944 62.0311 38.862 62.0741C38.8296 62.1172 38.8047 62.1708 38.8047 62.2522V62.2758C38.8047 62.3289 38.7833 62.3554 38.7393 62.3554H38.4753C38.429 62.3554 38.4064 62.3289 38.4064 62.2758V62.2104C38.4064 62.0045 38.4544 61.8476 38.5505 61.7397C38.6466 61.6318 38.7902 61.5781 38.9824 61.5781H40.4304C40.6174 61.5781 40.7604 61.6395 40.8606 61.7633C40.9602 61.8866 41.0106 62.0617 41.0106 62.29V63.2826C41.0106 63.5102 40.9608 63.6848 40.8606 63.8069C40.761 63.9284 40.6174 63.9897 40.4304 63.9897H38.9824C38.7954 63.9897 38.6524 63.9289 38.5523 63.8069C38.4527 63.6854 38.4023 63.5102 38.4023 63.2826V62.7064C38.4023 62.6503 38.4243 62.622 38.4677 62.622H40.5931ZM40.3245 63.5539C40.4194 63.5539 40.4878 63.5279 40.53 63.4766C40.5723 63.4253 40.5931 63.3415 40.5931 63.2259V63.039H38.7856V63.2259C38.7856 63.3415 38.8059 63.4247 38.847 63.4766C38.8881 63.5279 38.9558 63.5539 39.0502 63.5539H40.3245Z" fill="#D0B787"/>
<path d="M54.2243 62.622V62.3413C54.2243 62.2257 54.2023 62.1549 54.1612 62.093C54.1247 62.0387 54.0506 61.9721 53.9557 61.9721H52.693C52.5986 61.9721 52.5256 62.0311 52.4932 62.0741C52.4608 62.1172 52.4359 62.1708 52.4359 62.2522V62.2758C52.4359 62.3289 52.4145 62.3554 52.3705 62.3554H52.1065C52.0602 62.3554 52.0376 62.3289 52.0376 62.2758V62.2104C52.0376 62.0045 52.0856 61.8476 52.1817 61.7397C52.2778 61.6318 52.4214 61.5781 52.6136 61.5781H54.0616C54.2486 61.5781 54.3916 61.6395 54.4918 61.7633C54.5914 61.8866 54.6418 62.0617 54.6418 62.29V63.2826C54.6418 63.5102 54.592 63.6848 54.4918 63.8069C54.3922 63.9284 54.2486 63.9897 54.0616 63.9897H52.6136C52.4266 63.9897 52.2836 63.9289 52.1835 63.8069C52.0839 63.6854 52.0335 63.5102 52.0335 63.2826V62.7064C52.0335 62.6503 52.0555 62.622 52.0989 62.622H54.2243ZM53.9557 63.5539C54.0506 63.5539 54.1189 63.5279 54.1612 63.4766C54.2035 63.4253 54.2243 63.3415 54.2243 63.2259V63.039H52.4168V63.2259C52.4168 63.3415 52.4371 63.4247 52.4782 63.4766C52.5193 63.5279 52.587 63.5539 52.6814 63.5539H53.9557Z" fill="#D0B787"/>
<path d="M30.4236 63.8636C30.4393 63.8978 30.4399 63.9267 30.4254 63.9497C30.4109 63.9727 30.3843 63.9839 30.3461 63.9839H30.0797C30.0236 63.9839 29.9854 63.9562 29.9651 63.9014L29.7729 63.4514H28.4847L28.2925 63.9014C28.2745 63.9562 28.2363 63.9839 28.1778 63.9839H27.9353C27.897 63.9839 27.8704 63.9727 27.8559 63.9497C27.8415 63.9267 27.842 63.8984 27.8577 63.8636L28.8697 61.6579C28.8923 61.6054 28.9317 61.5789 28.9878 61.5789H29.2981C29.3543 61.5789 29.3925 61.6054 29.4128 61.6579L30.4248 63.8636H30.4236ZM28.6294 63.1182H29.6276L29.1285 61.9534L28.6294 63.1182Z" fill="#D0B787"/>
<path d="M31.3777 63.8594C31.3777 63.9343 31.3441 63.972 31.2758 63.972H31.0326C30.9649 63.972 30.9307 63.9343 30.9307 63.8594V61.6938C30.9307 61.6189 30.9643 61.5811 31.0326 61.5811H32.6896C32.9513 61.5788 33.2124 61.6478 33.3039 61.9126C33.3334 61.9922 33.389 62.4198 33.2495 62.6321C33.1904 62.7223 33.1227 62.7441 33.0156 62.7831C33.1759 62.8367 33.3438 63.0078 33.3409 63.2036C33.3444 63.2944 33.3305 63.8594 33.3305 63.8594C33.3305 63.9343 33.2964 63.972 33.2286 63.972H33.0034C32.9374 63.972 32.905 63.9343 32.905 63.8594V63.4737C32.9102 63.1222 32.8592 63.0184 32.5599 63.0019H31.3771V63.8594H31.3777ZM32.8934 62.2228C32.8928 62.0464 32.8176 61.9786 32.645 61.9769H31.3777V62.602H32.645C32.7313 62.602 32.7944 62.5831 32.8343 62.546C32.9056 62.4923 32.894 62.3177 32.894 62.2228H32.8934Z" fill="#D0B787"/>
</g>
<defs>
<clipPath id="clip0_172_2659">
<rect width="58" height="64" fill="white" transform="translate(0.377167 0.380859)"/>
</clipPath>
</defs>
</svg>
