<?xml version="1.0" encoding="UTF-8"?>
<svg id="Layer_2" data-name="Layer 2" xmlns="http://www.w3.org/2000/svg" viewBox="0 0 321.99 240.06">
  <defs>
    <style>
      @font-face {
        font-family: 'Montserrat';
        src: url('/fonts/Montserrat-Regular.ttf') format('truetype');
        font-weight: 400;
        font-style: normal;
      }
      @font-face {
        font-family: 'Montserrat';
        src: url('/fonts/Montserrat-Bold.ttf') format('truetype');
        font-weight: 700;
        font-style: normal;
      }
      @font-face {
        font-family: 'Montserrat';
        src: url('/fonts/Montserrat-ExtraBold.ttf') format('truetype');
        font-weight: 800;
        font-style: normal;
      }
      .cls-1 {
        fill: #1f92bf;
        font-family: 'Montserrat', sans-serif;
        font-size: 12.79px;
      }

      .cls-2 {
        fill: #fff;
        font-family: 'Montserrat', sans-serif;
        font-size: 14.04px;
        font-weight: 800;
        isolation: isolate;
      }

      .cls-3 {
        fill: #31b1f0;
        stroke: #000;
        stroke-width: 2.01px;
      }

      .cls-3, .cls-4 {
        stroke-linejoin: round;
      }

      .cls-4 {
        fill: none;
        stroke: #aa7d0b;
        stroke-linecap: round;
        stroke-width: .17px;
      }
    </style>
  </defs>
  <g id="Layer_1-2" data-name="Layer 1">
    <g>
      <g>
        <polygon class="cls-3" points="320.98 78.47 319.81 80.93 316.42 80 314.08 80.81 311.39 78.47 309.64 74.96 310.11 71.92 312.44 73.79 314.2 73.21 315.72 71.92 317.59 71.92 320.28 74.73 320.98 78.47"/>
        <polygon class="cls-3" points="277.23 48.98 275.01 46.88 273.25 44.3 272.79 39.27 271.62 37.75 268.81 38.69 266.59 37.52 266.59 43.13 272.44 51.21 271.62 57.06 275.25 57.29 277.94 56.59 279.34 55.07 279.11 52.14 277.23 48.98"/>
        <path class="cls-3" d="M278.4,96.38l-.59,3.28-3.51-6.79-3.75-5.85-4.56-5.26-9.01-7.37-3.74-2.11-4.09-1.52-8.19-1.17-6.79-2.22-3.63-.47-2.11.23-2.46,1.05-1.64.47h-7.02l-3.16,1.29-6.2,5.15h-3.63l-1.29-1.05-2.34-3.86-1.4-1.53-1.99-.81-4.68-.82-4.68-2.58-3.63,1.99-6.08,5.5,1.29,5.62-5.15,5.27-7.37,3.86-12.05,2.69-10.64,6.2-13.92,5.15-3.28,2.46-6.9,7.72-3.16,2.22-1.99,2.57-.47,5.15,1.05,6.44.11,2.58-9.83,3.74-1.76,3.75.47,4.8,2.45,4.8,1.64,1.75,2.57,1.99,1.41,1.87.7,2.46-.94,1.4-1.87,1.17-3.16,3.04-1.4.7-1.4.94-1.29,2.46-.82,2.81-.11,2.22.94,4.68,2.1,5.15.59,2.69-.82,2.81-1.64,1.76-1.4,1.17-.94,1.28-.35,2.22.23,1.41.7,1.17.47,1.52-.24,1.64-.7,1.05-3.04,2.11-1.05,3.39.12,1.52.93,1.64-.81,3.04,1.05,3.28,4.21,5.73-.23,1.99-2.57,1.99-4.68,2.69-4.56,5.5-3.86,4.8-1.84,3.07,1.68-41.49-10.86-15.93s11.22-7.96,5.43-13.76c-5.79-5.79-19.54-14.12-19.54-14.12,0,0,2.89-26.07-7.24-33.31-10.13-7.24-32.21-7.18-32.21-7.18l-2.9-17.44-10.86-8.32v-7.96s-.73-3.78-7.58-6.23l17.43,2.98s4.34-8.45,7.96-16.65c3.62-8.21,13.51-21.96,31.84-24.86,18.33-2.9,42.46,0,46.32-5.07,3.86-5.07,6.03-28.72,6.03-28.72l5.31,5.79c5.07,5.31,41.25,19.31,41.25,19.31l4.05-11.7,5.02.64,7.84,2.45,4.21.36,3.39-.7,10.06-4.22,4.33-.7,20.71.7,1.52,1.53.82,1.75.58,1.64.82,1.64,3.28,3.98,3.39,3.16,3.74,2.11,16.38,3.51,3.16,1.87,1.99,3.51,2.22,5.5,2.81,5.15,3.63,2.22,3.86,1.52,3.39,3.63,2.69,4.8,1.75,4.91,1.87,19.66,1.29,1.99,1.52,4.45.94,4.91Z"/>
      </g>
      <path class="cls-4" d="M78.38,165.25s3.98-14.54,3.83-14.99,5.66-8.5,5.66-8.5l-1.49-10.28,6.06-9.17,1.54-11.99,8.5-13.26.84-14.59-1.81-24.35,5.3-5.77,8.23-1.37,8.91-10.11h15.77l4.95-1.19h4.62l9.09,2.38,8.2-3.73,16.69-4.02,3.48-4.77-21.22-7.15-8.37,3.72"/>
      <polygon class="cls-4" points="138.99 65.66 136.83 58.95 133.11 54.41 139.37 51.5 147.1 50.98 152.96 60.35 150.39 62.38 146.15 64.84 138.99 65.66"/>
      <text class="cls-2" transform="translate(65.02 85.61)"><tspan x="0" y="0">BAKI RETSİ</tspan></text>
      <text class="cls-1" transform="translate(190 50.98)"><tspan x="0" y="0">Bakı</tspan></text>
      <text class="cls-1" transform="translate(47.87 64.27)"><tspan x="0" y="0">Abşeron</tspan></text>
    </g>
  </g>
</svg>