<?xml version="1.0" encoding="UTF-8"?>
<svg id="Layer_2" data-name="Layer 2" xmlns="http://www.w3.org/2000/svg" viewBox="0 0 228.97 314.45">
  <defs>
    <style>
      .cls-1 {
        fill: #1f92bf;
        font-family: ArialMT, Arial;
        font-size: 12.79px;
      }

      .cls-2 {
        fill: none;
        stroke: #8c8c8c;
        stroke-miterlimit: 10;
        stroke-width: .34px;
      }

      .cls-3 {
        letter-spacing: -.07em;
      }

      .cls-4 {
        fill: #fff;
        font-family: Montserrat-Black, Montserrat;
        font-size: 13.29px;
        font-weight: 800;
        isolation: isolate;
      }

      .cls-5 {
        fill: #31b1f0;
        stroke: #000;
        stroke-linejoin: round;
        stroke-width: 2.01px;
      }

      .cls-6 {
        letter-spacing: -.02em;
      }
    </style>
  </defs>
  <g id="Layer_1-2" data-name="Layer 1">
    <g>
      <path class="cls-5" d="M227.94,150.09h0s-.17.69-.17.69l-.47,8.19-.94,5.03-1.64,4.1-13.69,9.59-7.14,2.81-5.03-4.09.58-2.69-.12-1.87.23-1.64,1.76-1.76,8.19-1.64,2.81-1.4,2.34-3.63,1.52-4.68.12-4.68-2.11-4.33-3.63-1.99-8.66-.23v-2.11l-1.05-9.6-.7-2.69-3.16-2.69-3.51-.94-7.72.35-2.22.7-1.05,1.87-.7,2.45-1.52,3.28-.12,1.29v2.46l-.35,1.87-.82.47h-.94l-.47.23-.35,11,.7,5.73,2.93,5.03-.7,5.74-4.91,16.73-.58,1.53-3.63,8.42-.47.47-5.15,6.32-6.55-1.76.12,8.31.47,3.86.82,3.63,1.41,3.63,2.92,9.36.94,33.94,1.05,39.09-11.7-2.46h-5.85l-4.09,2.22-3.51,3.63-4.68,2.93-4.91,2.11-4.33,1.17-8.42-.7h-.93l-5.73-5.73-5.03-8.31-2.34-3.04-4.45-5.62-2.81-3.86-3.04-3.39-2.92-4.68-2.93-2.69-2.34-3.16-1.28-6.09-2.11-5.03h-4.21l-9.24,4.21-5.61-.12-3.28-3.04-2.92-4.33-8.78-7.02-.35-3.98.82-4.56-.94-3.39-.47-1.87-2.22-1.99-24.1-11.93-11.82-9.48-3.63-6.55-.47-9.71,1.75-2.58,9.48-5.97.58-1.52v-1.76l.59-1.52,33.57-5.97,7.48-4.56v-.12l1.64-2.46,1.41-3.04v-.12l.94-3.16.12-3.28-1.05-2.92-5.5-11.82-2.69-2.69-10.41-4.22-10.3-10.18-4.44-6.2-2.46-6.32.35-8.08,3.28-6.67,5.26-5.03,6.2-3.16,11.35-2.34,9.59-6.44,4.67-1.52,1.12-.35.75-.24-3.98-8.54-5.15-7.02-12.4-11.58L17.2,19.12,5.97,8.71l-3.51-2.45-1.46-.35S6.64.35,8.17,1.07c1.53.72,14.39,5.47,14.39,7.8v4.59s22.52,16.17,23.4,19.39l18.01.68s13.63-10.26,13.63-13.03l-1.39-.83,9.43-11.11,10.61,11.26s6.11-2.09,22.35-1.29c16.24.8,20.43,12.23,20.43,12.23,0,0-2.73,14.8.16,16.89,2.9,2.09,4.34,17.06,4.34,17.06l-13.03,26.38,6.23,17.94-2.25,21.88,12.54,3.22v10.13l7.56,4.99,2.9-17.37,22.84-14.8,1.29-8.85h7.88l4.34,13.35h14.47s5.95,6.44,13.19,10.94c7.17,4.46,6.45,17.32,6.44,17.57Z"/>
      <polyline class="cls-2" points="68.51 83.37 70.26 86.07 71.12 97.44 77.4 100.99 80.07 98.65 82.2 95.98 85.22 94.38 88.92 93.79 95.62 88.42 101.16 81.81 107.56 81.81 111.71 88.42 113.63 96.84 119.6 100.57 125.24 95.24 125.58 84.92 126.2 81.6 129.13 78.7 130.93 75.13 132.6 72.97 136.01 72.97 138.59 74.74"/>
      <polyline class="cls-2" points="62.47 167.74 75.7 166.73 84.22 164.39 90.51 168.54 95.52 174.83 104.57 172.38 109.19 167.39 115.23 160.02 120.34 156.5 124.89 154.8 129.72 151.5 126.84 146.17 126.67 140.17 130.46 139.88 133.27 140.76 135.58 139.24 140.19 135.41 144.19 133.39"/>
      <polyline class="cls-2" points="164.03 127.64 164.03 140.63 162.27 146.13 162.64 155.87 171.06 163.86 171.06 170.58 171.7 175.47 175.64 185.49"/>
      <polyline class="cls-2" points="171.03 197 164.78 195.38 158.7 195.29 154.43 197.74 152.91 200.12 141.44 205.55 135.58 210.17 128.87 211.59 122.12 207.34 116.08 201.42 115.29 192.44 107.47 185.38 98.93 184.1 95.52 174.83"/>
      <path class="cls-2" d="M48.67,238.89l5.19-2.58,5.24-8.2s2.4-11,7.96-14.99,34.98-22.08,40.42-27.74"/>
      <polyline class="cls-2" points="116.61 202.53 111.89 211.59 114.25 222.97 129.61 233.22 134.45 242.54 134.45 248.08 134.56 250.65 138.78 254.63 141.44 257.83 138.3 264.12 135.58 269.02 127.59 272.96 122.95 272.96 119.28 273.71 114.5 276.75 112.54 278.65 110.41 285.24 105.06 295.65"/>
      <polyline class="cls-2" points="165.53 264.76 148.28 269.02 135.58 269.02"/>
      <polyline class="cls-2" points="161.67 221.46 158.5 223.49 158.91 232.16 159.97 234.69 163.78 235.25 164.6 230.82"/>
      <text class="cls-1" transform="translate(114.49 298.43)"><tspan x="0" y="0">Astara</tspan></text>
      <text class="cls-1" transform="translate(66.35 55.2)"><tspan x="0" y="0">Biləsuvar</tspan></text>
      <text class="cls-1" transform="translate(59.81 127.64)"><tspan x="0" y="0">Cəlilabad</tspan></text>
      <text class="cls-1" transform="translate(125.35 187.29)"><tspan x="0" y="0">Masallı</tspan></text>
      <text class="cls-1" transform="translate(74.81 250.64)"><tspan x="0" y="0">Lerik</tspan></text>
      <text class="cls-1" transform="translate(20.73 205.68)"><tspan class="cls-3" x="0" y="0">Y</tspan><tspan x="7.58" y="0">ardımlı</tspan></text>
      <text class="cls-4" transform="translate(68.51 168.99)"><tspan class="cls-6" x="0" y="0">C</tspan><tspan x="9.46" y="0">ƏNUB RETSİ</tspan></text>
      <text class="cls-1" transform="translate(103.33 225.32)"><tspan x="0" y="0">Lənkəran</tspan></text>
    </g>
  </g>
</svg>