<?xml version="1.0" encoding="UTF-8"?>
<svg id="Layer_2" data-name="Layer 2" xmlns="http://www.w3.org/2000/svg" viewBox="0 0 423.59 226.13">
  <defs>
    <style>
      .cls-1 {
        letter-spacing: 0em;
      }

      .cls-2 {
        fill: #1f92bf;
        font-family: ArialMT, Arial;
        font-size: 12.79px;
      }

      .cls-3 {
        fill: none;
      }

      .cls-3, .cls-4 {
        stroke: #8c8c8c;
        stroke-miterlimit: 10;
        stroke-width: .34px;
      }

      .cls-5 {
        fill: #fff;
        font-family: Montserrat-Black, Montserrat;
        font-size: 14.04px;
        font-weight: 800;
        isolation: isolate;
      }

      .cls-4, .cls-6 {
        fill: #31b1f0;
      }

      .cls-7 {
        letter-spacing: -.05em;
      }

      .cls-8 {
        letter-spacing: -.09em;
      }

      .cls-6 {
        stroke: #000;
        stroke-linejoin: round;
        stroke-width: 2.01px;
      }
    </style>
  </defs>
  <g id="Layer_1-2" data-name="Layer 1">
    <g>
      <path class="cls-6" d="M422.58,115.88s-14.15,10.62-16.24,12.07c-2.09,1.45-3.54,11.58-3.54,15.93s-4.5,6.44-4.5,6.44l-7.08,4.02,3.22,19.95-4.83,12.23s3.22,6.28,1.45,6.92c-1.77.64-3.86,7.56-4.18,9.98-.32,2.41-12.55,5.31-12.55,5.31l-10.13,6.27-3.22,10.14-8.05-2.71-1.88-.63-9.05-4.95h-10.61l-9.17-5.79-6.75-9.65-4.83-2.17-6.27,3.62-5.79,3.38-.72,7.48s-5.79,1.93-8.44-1.93c-2.65-3.86,7.24-15.93,7.96-17.88.72-1.95-4.1-17.96-4.1-19.65s6.76-10.74,6.76-10.74v-4.95l-23.16,2.9-2.53-2.66-7.44-.89-3.62-3.94-7.8,2.17-4.26,6.8s-.48-1.41-.97-3.82c-.48-2.41-22.35-13.43-22.35-13.43l4.1-4.34-10.05-4.35-1.13,7.48-6.75,1.21s-11.82,13.76-12.3,16.33c-.48,2.58,4.5,3.86,4.5,3.86l1.93,5.63-17.97,10.05s-2.89,8.69-3.54,9.82c-.64,1.13-8.36,3.38-11.74,2.52s-1.29-6.22-2.09-7.98c-.8-1.77-16.73,4.02-16.73,4.02l-25.24-2.25s-.33-2.09,0-4.99c.32-2.9-13.83-2.9-13.83-2.9,0,0-2.89,7.08-5.95,9.01-3.06,1.93-3.86.48-4.83-2.58-.97-3.05-10.13,1.29-10.77,4.67-.64,3.38-5.79,3-5.79,3,0,0,1.61,4.72,2.41,6.01.8,1.28-1.77,4.02-4.98,4.18-3.22.16-3.38,5.31-3.38,5.31,0,0-5.47,1.29-10.29,0-4.68-1.25-6.91-2.83-7.04-2.93l6.64-1.53-3.86-6.76-15.44-8.45s-12.55,11.82-14.24,11.1c-1.69-.72-5.31-10.13-5.31-11.1v-24.62l-5.07-2.17-9.89,6.76s-6.83,1.18-18.25-3.63l5.07-11.49s-6.6-7.4,0-11.9c6.59-4.51,8.04-5.63,8.04-5.63l3.86-16.89,9.65-9.98,1.13-8.37s5.15-7.56,5.15-14.8-4.83-16.89-4.83-16.89c0,0,4.83-6.11,1.13-10.78-3.7-4.67,8.85-10.94,8.85-10.94l2.09-6.44,21.71-20.43,13.99-1.77s1.24-13.66,8.45-18.75h0l23.07,11.22,7.6-1.21c12.67,2.17,36.55,24.26,36.55,24.26l5.07-3.26,9.05,6.52,34.74,11.95,7.6-2.17,4.7,8.69,10.5-7.96,3.98,11.22-7.24,7.6,15.2,7.96,14.11-5.07,10.49,2.17,13.03-2.54.72,4.34,23.84-1.69,4.18,5.95,8.52-.32,5.47,1.77,1.12,10.62-7.4,2.41,9.33,14.48c.91-.97,4.49-2.08,8.43-3.05,5.84-1.44,12.47-2.58,12.47-2.58l-.64-13.03,12.71-3.22,1.28-5.15s11.1-5.31,12.55-6.44c1.45-1.12,7.24.97,7.88.32.64-.64,2.74-9.01,2.74-9.01l9.97-.64c-.16-1.29,9.81-13.68,9.81-13.68l.48-7.4,5.63.8-.97,11.1,2.9,8.21-5.55,11.54-4.58,1.69-5.15,3.06-3.42,9.65,10.46,8.85,4.5,6.92,8.68-2.41c3.7,1.45,12.87,12.39,12.87,12.39Z"/>
      <polyline class="cls-3" points="82.89 .51 82.16 8.99 83.27 27.46 81.99 37.33 78.92 46.87 83.27 55.03 90.53 55.93 95.91 59.7 91.57 66.46 85.7 75.1 89.41 80.27 96.65 75.8 103.32 76.76 108.06 81.86 107.44 93.02 108.06 102.33 113.49 103.93 119.14 103.08 120.63 104.91 119.29 109.31 116.31 114.77 113.7 115.97 104.4 125.13 89.17 134.23 77.05 134.19 67.15 138.67 59.25 143.67 49.24 147.61 42.34 156.2 31.03 163.75"/>
      <polygon class="cls-3" points="113.06 47.03 121.35 57.26 136.4 51.19 132.77 45.33 128.78 45.39 125.18 46.33 118.29 43.94 113.06 47.03"/>
      <path class="cls-3" d="M162.5,81.66l.32-3.09-.85-.75-2.2-.2s-11.46.37-12.08.2l-3.2,5.11,2.56,7.78,5.75,3.41,6.41.32,1.58-2.45-.43-1.49-.11-2.88.43-1.7,1.81-4.26Z"/>
      <polyline class="cls-3" points="175.29 42.02 173.29 49.59 167.83 69.51 167.72 78.14 170.07 85.39 168.15 92.74 164.1 97.64 158.99 100.63 154.31 111 152.87 114.21 147.11 115.48 130.62 118.19 128.69 121.1 121.91 131.31 118.59 127.51 115.85 123.23 114.88 119.14 113.7 115.97"/>
      <polyline class="cls-3" points="142.77 188.29 141.28 181.3 140.89 173.1 141.62 158.48 136.69 156.67 132.03 152.62 128.83 146.76 126.27 144.95 124.33 142.26 121.91 131.31"/>
      <polyline class="cls-3" points="205.41 155.74 204.82 155 203.9 155.74 204.59 150.7 205.33 148.57 206.4 146.66 204.38 143.83 197.45 144.74 194.04 143.35 197.66 138.02 196.28 135.36 186.48 131.84 187.97 130.03 191.7 127.16 192.76 125.35 192.98 121.47 191.6 121.02 189.54 121.86 187.43 122.26 184.66 122.15 184.02 121.62 184.13 119.27 180.4 114.69 178.38 113.84 177.12 111.55 178.12 107.84 178.59 103.29 175.39 100.84 173.8 101.7 169.64 106.59 167.94 107.66 167.3 105.53 167.6 102.28 169.11 99.77 166.98 97.43 165.27 96.26"/>
      <polyline class="cls-3" points="222.81 138.32 219.83 131.84 214.71 128.86 212.15 122.59 214.28 110.39 214.82 107.23 220.25 103.61 227.31 102.86 234.1 105.1 234.74 97.11 237.12 89.83 239.3 87.35 239.96 84.96 236.1 75.82"/>
      <polyline class="cls-3" points="297.26 158.41 297.52 155.57 301.98 150.81 305.8 144.03 307.94 125.13 305.77 124.24 303.25 123.21 298.09 123.7 290.7 122.45 269.24 112.43 265.05 115.91 260.05 117.1 253.28 111.92 248.49 109.26 242.38 111.35 237.25 109.26 234.1 105.1"/>
      <polyline class="cls-3" points="328.46 104.79 325.45 112.92 323.71 123.53 328.92 128.18 334.78 127.01 342.15 133.76 352.59 125.03 360.69 124.39 367.82 127.9 368.46 146.34 374.11 148.36 379.17 151.13 383.24 159.06 393.28 167.13"/>
      <polyline class="cls-3" points="319.53 107.96 315.25 120.13 305.77 124.24"/>
      <path id="_18" data-name="18" class="cls-4" d="M95.62,116l-1.6.11-1.17-1.17-.64-1.49,2.88-3.2,2.45,2.24-.21,2.34-1.7,1.17h0Z"/>
      <text class="cls-2" transform="translate(22.48 131.31)"><tspan x="0" y="0">Goranboy</tspan></text>
      <text class="cls-2" transform="translate(108.16 77.62)"><tspan class="cls-8" x="0" y="0">Y</tspan><tspan x="7.35" y="0">evlax</tspan></text>
      <text class="cls-2" transform="translate(180.11 93.1)"><tspan x="0" y="0">Ağdaş</tspan></text>
      <text class="cls-2" transform="translate(358.5 105.1)"><tspan x="0" y="0">Ağsu</tspan></text>
      <text class="cls-2" transform="translate(153.66 163.75)"><tspan x="0" y="0">Bərdə</tspan></text>
      <text class="cls-2" transform="translate(254.05 96.26)"><tspan x="0" y="0">Göyçay</tspan></text>
      <text class="cls-2" transform="translate(312.65 181.49)"><tspan x="0" y="0">Kürdəmir</tspan></text>
      <text class="cls-2" transform="translate(80.39 170.54)"><tspan x="0" y="0">Tərtər</tspan></text>
      <text class="cls-2" transform="translate(46.92 104.79)"><tspan x="0" y="0">Naftalan</tspan></text>
      <text class="cls-2" transform="translate(86.52 42.02)"><tspan x="0" y="0">Mingəçevir</tspan></text>
      <text class="cls-2" transform="translate(253.04 141.73)"><tspan x="0" y="0">Ucar</tspan></text>
      <text class="cls-5" transform="translate(111.8 122.01)"><tspan x="0" y="0">MƏR</tspan><tspan class="cls-7" x="35.35" y="0">K</tspan><tspan class="cls-1" x="45.46" y="0">Ə</tspan><tspan x="56.87" y="0">Zİ ARAN RETSİ</tspan></text>
    </g>
  </g>
</svg>