<?xml version="1.0" encoding="UTF-8"?>
<svg id="Layer_2" data-name="Layer 2" xmlns="http://www.w3.org/2000/svg" viewBox="0 0 250.44 224.73">
  <defs>
    <style>
      .cls-1 {
        letter-spacing: 0em;
      }

      .cls-2 {
        letter-spacing: 0em;
      }

      .cls-3 {
        letter-spacing: -.04em;
      }

      .cls-4 {
        fill: none;
        stroke: #8c8c8c;
        stroke-width: .34px;
      }

      .cls-4, .cls-5 {
        stroke-miterlimit: 10;
      }

      .cls-6 {
        letter-spacing: -.01em;
      }

      .cls-7 {
        fill: #fff;
        font-family: Montserrat-Black, Montserrat;
        font-size: 14.04px;
        font-weight: 800;
      }

      .cls-7, .cls-8 {
        isolation: isolate;
      }

      .cls-5 {
        fill: #31b1f0;
        stroke: #000;
        stroke-width: 2.01px;
      }

      .cls-9 {
        letter-spacing: -.02em;
      }

      .cls-8 {
        fill: #1f92bf;
        font-family: ArialMT, Arial;
        font-size: 12.79px;
      }

      .cls-10 {
        letter-spacing: -.04em;
      }
    </style>
  </defs>
  <g id="Layer_1-2" data-name="Layer 1">
    <g>
      <g>
        <polygon class="cls-5" points="17.34 10.34 22.41 11.14 25.42 7.72 23.66 2.2 19.29 1.05 14.85 2.39 14.33 5.1 15.26 8 17.34 10.34"/>
        <polygon class="cls-5" points="248.87 223.47 247 223.71 236.47 221.13 224.42 215.63 186.17 207.56 181.96 205.92 172.72 202.29 156.46 202.06 146.16 199.48 141.13 199.36 139.73 199.01 138.91 198.9 135.16 196.67 132.24 195.85 130.13 195.27 125.92 193.28 122.06 190.7 119.96 188.13 119.72 185.67 120.19 183.68 120.89 181.69 121.36 179.35 120.43 177.71 116.1 175.73 114.46 174.44 113.52 172.56 112.12 167.54 111.3 165.66 109.66 163.79 107.91 162.85 106.39 161.56 105.1 159.23 106.74 155.83 105.69 153.25 103.23 151.73 100.65 151.27 98.9 150.33 99.02 148.34 99.48 146.12 98.9 144.71 97.26 144.48 95.51 145.18 94.34 146 93.87 146.47 74.92 140.15 70.12 141.67 68.95 138.04 67.08 126.34 65.79 123.88 64.27 121.54 63.1 119.08 59.83 111.71 58.31 109.37 56.67 108.44 54.8 106.21 53.39 103.75 52.81 102.11 51.76 100.94 51.64 100.83 45.21 96.38 44.62 95.56 44.15 94.51 43.57 93.57 42.16 93.22 40.18 93.22 39.24 93.11 34.56 89.71 33.86 87.96 35.38 85.15 31.63 81.75 29.41 77.07 23.91 54.37 21.69 49.22 17.95 46.53 18.65 45.83 19.12 44.77 15.02 44.66 11.05 43.84 7.77 41.96 7.3 41.26 5.2 38.34 3.21 29.33 1.45 26.4 6.6 24.18 15.02 22.54 22.98 22.77 29.18 21.25 33.86 18.56 34.91 17.98 41.69 12.83 48.48 10.37 54.68 13.53 55.97 15.28 68.02 30.73 69.89 34.71 70.71 39.04 70.36 44.54 68.6 53.08 69.3 56.48 72.93 58.82 79.6 57.18 84.75 52.38 89.66 50.74 90.71 52.38 95.28 58.7 97.38 63.61 99.25 66.31 101.94 67.36 110.48 68.18 113.64 69.82 119.37 75.67 119.49 75.79 121.36 76.84 123.46 77.19 125.57 76.84 127.56 75.79 129.43 74.97 144.05 65.61 148.97 63.61 171.2 58.11 172.25 57.88 176.46 57.77 181.49 59.75 185.59 62.68 187.22 65.72 187.34 69.7 186.64 75.67 188.39 86.44 187.57 90.18 181.37 100.25 180.2 105.04 181.25 107.38 181.73 108.55 192.14 111.25 195.88 114.29 199.27 118.03 203.6 121.42 206.29 122.71 216.7 127.74 220.33 131.37 221.5 133.25 221.97 135 221.62 136.64 220.33 138.28 216 144.01 214.83 149.98 216.47 156.18 220.33 162.5 225.13 169.29 228.75 176.78 238.23 203.23 248.87 223.47"/>
      </g>
      <polyline class="cls-4" points="11.05 43.84 15.26 33.61 22.87 25.98 30.33 23.45 33.86 18.56"/>
      <polyline class="cls-4" points="50.92 100.33 59.74 94.07 65.79 84.01 69.01 70.52 72.93 58.82"/>
      <polyline class="cls-4" points="90.71 52.38 88.59 54.15 85.2 59.44 79.66 80.11 80.83 86.39 83.47 93.08 84.88 99.07 82.75 104.19 85.08 109.45 84.46 114.95 80.43 117.59 75.58 119.82 71.35 121.13 62.66 118.08"/>
      <polyline class="cls-4" points="119.37 75.67 115.67 78.95 110.44 84.23 107.36 88.95 110.79 91.35 114.08 92.68 117.28 101.85 134.62 111.55 137.94 115.8 137.94 123.69 142.31 123.16 144.34 130.83 137.85 133.59 116.1 134.34 104.61 133.59 99.05 139.24 110.73 148.51 128.47 147.1 134.42 149.19 138.26 152.56 137.73 160.98 134.32 168.23 137.5 175.48 142.53 183.04 141.57 185.9 139.01 189.32 139.73 199.01"/>
      <polyline class="cls-4" points="127.4 147.19 135.17 141.8 138.9 133.28"/>
      <polyline class="cls-4" points="142.31 123.16 150.31 118.59 158.08 115.59 163.3 112.71 167.33 117.05 171.93 117.93 180.87 106.53"/>
      <polyline class="cls-4" points="181.51 205.75 185.34 198.89 180.03 193.48 173.11 188.72 173.11 186.09 173.99 183.98 174.88 178.92 175.66 176.11 183.41 166.25 190.48 150.49 191.64 147.19 193.74 138.45 194.54 135.91 205.8 122.48"/>
      <text class="cls-8" transform="translate(173.65 192.27)"><tspan x="0" y="0">Ordubad</tspan></text>
      <text class="cls-8" transform="translate(31.22 60.65)"><tspan x="0" y="0">Şərur</tspan></text>
      <text class="cls-8" transform="translate(14.33 36.64)"><tspan x="0" y="0">Sədərək</tspan></text>
      <text class="cls-8" transform="translate(144.34 156.37)"><tspan x="0" y="0">Culfa</tspan></text>
      <text class="cls-8" transform="translate(125.16 92.9)"><tspan x="0" y="0">Şahbuz</tspan></text>
      <text class="cls-8" transform="translate(78.67 81.96)"><tspan x="0" y="0">Babək</tspan></text>
      <text class="cls-8" transform="translate(79.6 133.28)"><tspan x="0" y="0">Naxçıvan</tspan></text>
      <text class="cls-8" transform="translate(57.56 106.53)"><tspan x="0" y="0">Kəngərli</tspan></text>
      <text class="cls-7" transform="translate(92.9 123.16)"><tspan x="0" y="0">N</tspan><tspan class="cls-3" x="11.29" y="0">A</tspan><tspan class="cls-9" x="22.05" y="0">X</tspan><tspan class="cls-1" x="32.4" y="0">Ç</tspan><tspan class="cls-6" x="42.75" y="0">I</tspan><tspan class="cls-10" x="47.45" y="0">V</tspan><tspan class="cls-2" x="57.93" y="0">AN</tspan><tspan x="18.65" y="16.85">RETSİ</tspan></text>
    </g>
  </g>
</svg>