<?xml version="1.0" encoding="UTF-8"?>
<svg id="Layer_2" data-name="Layer 2" xmlns="http://www.w3.org/2000/svg" viewBox="0 0 320.92 336.77">
  <defs>
    <style>
      @font-face {
        font-family: 'Montserrat';
        src: url('/fonts/Montserrat-Regular.ttf') format('truetype');
        font-weight: 400;
        font-style: normal;
      }
      @font-face {
        font-family: 'Montserrat';
        src: url('/fonts/Montserrat-Bold.ttf') format('truetype');
        font-weight: 700;
        font-style: normal;
      }
      @font-face {
        font-family: 'Montserrat';
        src: url('/fonts/Montserrat-ExtraBold.ttf') format('truetype');
        font-weight: 800;
        font-style: normal;
      }
      .cls-1 {
        letter-spacing: 0em;
      }

      .cls-2 {
        letter-spacing: 0em;
      }

      .cls-3, .cls-4 {
        fill: #1f92bf;
        font-family: 'Montserrat', sans-serif;
        font-size: 12.79px;
      }

      .cls-5 {
        fill: none;
        stroke: #8c8c8c;
        stroke-miterlimit: 10;
        stroke-width: .34px;
      }

      .cls-6 {
        fill: #fff;
        font-family: 'Montserrat', sans-serif;
        font-size: 14.04px;
        font-weight: 800;
      }

      .cls-6, .cls-4 {
        isolation: isolate;
      }

      .cls-7 {
        letter-spacing: -.01em;
      }

      .cls-8 {
        letter-spacing: 0em;
      }

      .cls-9 {
        fill: #31b1f0;
        stroke: #000;
        stroke-linejoin: round;
        stroke-width: 2.01px;
      }
    </style>
  </defs>
  <g id="Layer_1-2" data-name="Layer 1">
    <g>
      <path class="cls-9" d="M262.96,157.05c-3.14,4.34,14.48,8.21,14.96,12.07.48,3.86,0,14-4.1,17.62-4.1,3.62-5.79,7.24-3.86,12.55,1.93,5.31,17.61,4.1,18.57,6.27.97,2.17,0,6.76,0,6.76l24.23,6.78-5.5,3.16-2.1,1.17-18.13,7.14-8.66,5.26-1.75,1.99-.59,2.34-6.67,10.65-3.04,8.89-.94,1.75-1.87,2.22-1.29.7-10.88,6.2-2.22.35-2.69-.7-5.03-2.34-2.93.12-2.92,1.4h-.12l-2.69,2.34-2.46,2.81-4.67,8.19-1.06,1.41-1.52,1.17-2.92,1.64-1.41,1.17-2.22,3.51-3.04,7.14-3.04,2.81-10.53,5.38-3.28,2.81-2.45,3.16-5.15,10.65-2.11,3.39-2.46,2.81-2.81,2.22-2.92,1.87-3.98,1.64-3.27.23-6.32-13.46-.7-2.69-.23-2.81.35-2.92.58-2.81.47-1.4,2.34-7.49.47-6.56-.94-6.67-2.34-7.61-4.33-3.63-6.08-3.39-4.68-4.68-.12-7.26,4.09-3.86,6.43.82,11,5.62,2.22-.35,8.42-5.97,3.86-.23,1.64-.7-.7-1.64-.23-.7-1.17-1.41-1.17-1.05-7.84-5.5-4.33-4.56-1.75-3.51-1.05-3.75-1.29-3.39-2.93-2.46-13.1-5.85-5.84-4.56-2.58-7.37,2.45-6.09,5.73-3.63,13.33-2.46,2.22-1.05,1.29-1.75v-2.22l-1.29-2.46.12-3.98,2.11-1.87,2.69-1.64,1.64-3.04-.58-3.86-2.22-3.04-3.04-1.99-2.93-.7-11.46,1.17-3.63-.58-2.69-1.99-4.22-5.85-2.57-2.11-6.31-.47-12.4,6.44-6.32,1.28-3.97-1.28-2.69-2.58-4.33-8.07-2.57-3.28-3.16-1.76-6.9-1.99-5.61-4.56-7.02-14.28-5.03-4.92-11.47-3.39-5.97-3.16-.67-.34-3.19-1.65-8.19-8.19-1.4-2.81-8.19-16.73-3.86-4.45-5.03-2.46-18.95-1.99-5.73-2.58-.35-3.28-.23-2.34,11.58-7.49,29.83,4.92,12.64-1.17,2.46-2.11,1.29-2.46,2.11-11,.7-1.76,3.98-3.51,3.51-4.68,2.22-5.85,3.28-15.33.12-1.41-.12-1.4-.35-1.41-4.68-6.2-2.57-2.45-2.69-1.41-3.98.24-2.58.7-1.17.35-3.63-.12S58.22.99,63.53,1.23c5.31.24,21.71,0,21.71,0,0,0,18.57-.49,20.99,0,2.41.49,29.43,4.5,29.43,4.5,11.42,4.81,18.25,3.63,18.25,3.63l9.89-6.76,5.07,2.17v24.62c0,.97,3.62,10.38,5.31,11.1,1.69.72,14.24-11.1,14.24-11.1l15.44,8.45,3.86,6.76-6.64,1.53h0l-.83.19-1.93.44-.72,8.21s-6.76,2.9-7.96,4.59c-1.21,1.69,4.82,8.2,7.72,9.89,2.89,1.69,20.99-2.65,20.99-2.65l14.96,9.17v12.31l13.03,1.93s-1.21,15.45,0,15.2c1.2-.24,7.96-6.03,9.89-6.52,1.93-.48,28.47,11.82,29.67,11.82s5.37-7.96,5.37-7.96c3.69-.24,13.93-3.86,13.93-3.86l2.17,2.66s-1.2,8.44,1.21,10.62c2.41,2.17,9.41,7,10.86,8.69,1.45,1.69-.48,12.07-2.17,14-1.69,1.93-12.55,4.83-14.71,6.27-2.17,1.45-13.51,2.9-13.51,2.9,0,0-4.1,5.31-12.3,7.72-8.2,2.41-10.61.96-13.75,5.31Z"/>
      <polyline class="cls-5" points="56.8 120.79 59.49 117.53 67.49 111.67 75.17 104.94 78.28 97.74 82.2 91.3 86.69 94.97 91.76 100.41 97.43 99.53 104.04 97.48 117.15 95.56 129.99 91.3 137.71 87.78 147.39 85.97 162.28 79.64 171.49 74.02 177.83 76.95 181.33 80.33 188.56 76.92 191.94 70.95 196.6 68.47 197.4 68.05"/>
      <path class="cls-5" d="M213.89,167.7l-1.92-6.71-2.56-5.11-5.35-.41-5.2,2.28-5.01,8.79-7.35,1.17-3.31-3.09-7.57-3.2-.75-6.29,2.94-7.46,2.6-5.11-1.11-6.97-1.93-8,8.96-1.36,11.04-4.35h8.76l7.73,2.56-1.49,2.45.21,2.56,1.28,1.28h3.73l.96-1.6,1.81-1.07s4.09,12.79,2.34,23.87l-9.8,15.77-7.97,1.35-5.03,5.58,3.09,3.41,1.07,6.07-3.68,5.19-5.09,3.47-10.19,7.4-3.74,2.9-8.4-1.09-5.64-3.26"/>
      <polyline class="cls-5" points="177.4 127.58 173.94 112.16 167.35 99.79 164.89 96.92 162.66 95.25 160 93.18 158.7 86.75 161.13 79.85"/>
      <polyline class="cls-5" points="213.89 124.44 217.09 125.29 220.39 128.06"/>
      <polygon class="cls-5" points="217.39 117.78 220.95 115.7 222.84 109.66 224.68 109.66 225.51 106.23 220.93 102.81 216.75 106.23 213.89 110.27 214.43 115.81 217.39 117.78"/>
      <polyline class="cls-5" points="246.31 105.4 234.25 118.9 230.12 124.41 232.5 130.72 241.46 139.52 244.42 149.79 239.44 153.19 232.11 158.75 227.32 156.08 222.74 151.93"/>
      <polyline class="cls-5" points="196.04 192.1 204.52 194.12 211.91 192.1 215.45 194.55 217.65 198.38 215.73 203.72 212.63 208.45 208.25 212.55 207.08 219.8 209.63 224.91 213.17 230.44 213.79 237.91 216.4 244.15 223.4 248.65 228.81 252.62 234.99 260.72 236.8 268.81"/>
      <line class="cls-5" x1="214.32" y1="261.35" x2="228.81" y2="252.62"/>
      <polyline class="cls-5" points="214.01 261.35 207.55 269.3 203.03 275.95 195.16 271.17 193.86 253.81 185.48 253.96"/>
      <polyline class="cls-5" points="212.63 208.45 218.37 210.91 222.84 211.46 226.47 211.81 228.81 203.38 226.04 196.57 230.33 193.91 234.57 197 240.84 198.76 241.36 202.17 241.17 205.1 245.76 209.64 253.28 213.37 254.85 217.58 259.58 216.53 262.33 213.96 265.8 213.25 268.45 212.88 269.09 210 266.85 202.75 269.68 198.44"/>
      <text class="cls-4" transform="translate(95.14 54.68)"><tspan x="0" y="0">Kəlbəcər</tspan></text>
      <text class="cls-4" transform="translate(228.81 240.31)"><tspan x="0" y="0">Cəbrayıl</tspan></text>
      <text class="cls-3" transform="translate(246.32 132.08)"><tspan x="0" y="0">Xocavənd</tspan></text>
      <text class="cls-4" transform="translate(120.22 147.03)"><tspan x="0" y="0">Laçın</tspan></text>
      <text class="cls-4" transform="translate(160.46 222.56)"><tspan x="0" y="0">Qubadlı</tspan></text>
      <text class="cls-4" transform="translate(188.77 149.79)"><tspan x="0" y="0">Şuşa</tspan></text>
      <text class="cls-3" transform="translate(193.28 88.64)"><tspan x="0" y="0">Xocalı</tspan></text>
      <text class="cls-4" transform="translate(168.05 288.74)"><tspan x="0" y="0">Zəngilan</tspan></text>
      <text class="cls-3" transform="translate(165.31 105.4)"><tspan x="0" y="0">Xankəndi</tspan></text>
      <text class="cls-6" transform="translate(111.44 126.25)"><tspan class="cls-7" x="0" y="0">Q</tspan><tspan class="cls-2" x="11.77" y="0">ARAB</tspan><tspan class="cls-8" x="55.72" y="0">A</tspan><tspan class="cls-1" x="66.9" y="0">Ğ RETSİ</tspan></text>
    </g>
  </g>
</svg>