<?xml version="1.0" encoding="UTF-8"?>
<svg id="Layer_2" data-name="Layer 2" xmlns="http://www.w3.org/2000/svg" viewBox="0 0 334.63 288.49">
  <defs>
    <style>
      .cls-1, .cls-2 {
        fill: #1f92bf;
        font-family: ArialMT, Arial;
        font-size: 12.79px;
      }

      .cls-3 {
        stroke: #8c8c8c;
        stroke-miterlimit: 10;
        stroke-width: .34px;
      }

      .cls-3, .cls-4 {
        fill: none;
      }

      .cls-5 {
        fill: #fff;
        font-family: Montserrat-Black, Montserrat;
        font-size: 16.1px;
        font-weight: 800;
      }

      .cls-5, .cls-2 {
        isolation: isolate;
      }

      .cls-4 {
        stroke-linecap: round;
      }

      .cls-4, .cls-6 {
        stroke: #000;
        stroke-linejoin: round;
        stroke-width: 2.01px;
      }

      .cls-7 {
        letter-spacing: -.11em;
      }

      .cls-6 {
        fill: #31b1f0;
      }
    </style>
  </defs>
  <g id="Layer_1-2" data-name="Layer 1">
    <g>
      <g>
        <polygon class="cls-4" points="48.15 115.46 43 111.01 42.18 110.89 41.48 111.01 40.9 111.36 40.31 111.95 42.07 117.45 46.28 118.15 48.15 115.46"/>
        <polygon class="cls-4" points="4.4 102.59 10.95 104.81 13.52 99.31 11.53 92.4 4.4 90.65 1.59 92.64 1.01 96.03 2.06 99.66 4.4 102.59"/>
        <path class="cls-6" d="M322.52,102.51c-.96-2.9,1.13-10.78,1.13-10.78l-10.29-6.76-6.11,2.89-6.02-2.89-2.03,2.87-3.51.47-3.51-.94-3.51-.35-3.86,2.46-1.99,3.86-1.05,3.74-1.64,2.58-3.98.12-3.16-1.99-5.15-6.79-2.93-2.69-10.88-3.51-3.74-2.34-10.76-9.71-5.26-6.67-2.81-2.81-3.28-1.05h-13.69l-4.09.94-4.56,3.04-4.8,3.04-3.63,1.29-4.33.47-8.78-1.17-27.02-9.71-9.13-5.62-3.51-2.22-7.49-6.44-4.44-6.9,4.09-5.03,4.21-1.52,2.58-1.41-.23-1.52-4.21-1.64-11.93-2.46-26.09-10.18-5.97-5.62-2.58-3.04-2.69-.47-5.97,1.76-3.74.35-2.81-.59-8.78-4.56-3.39-1.76-5.84-.23-5.85,1.99-27.61,22.94-17.31,14.39,6.67,14.39-1.87,5.03,1.05,3.04,3.16,1.29h11.82l3.16,1.05,9.48,7.49,2.34,3.39.23,3.86-6.2,4.56-18.02-.7-1.87,7.72,2.34,3.98,3.86,2.69,3.51.35,1.17-2.81.47-4.44,3.04,1.64,5.97,6.2,3.74,2.34,2.81,3.04,2.92,2.57,8.54.94,7.95,3.28,4.21.7,8.42-4.21,1.75-.94,1.14-.11,3.89-.36,1.05,5.62-1.52,7.84,2.22,2.46,2.57.58,1.75.59,4.8,3.86,7.84,10.07,2.81,2.93,3.74,1.28,4.33.23,3.16,1.76.35,5.26-3.51,9.95-4.8,5.38-14.04,6.9-7.37,3.51-7.14,5.85-4.56,8.08v10.18l2.58,5.62,3.51,3.39,3.75,2.92,3.16,3.98.7,2.34.35,5.27.82,2.58,1.75,1.99,3.74,2.46,1.53,2.81,5.85,12.52,10.76,10.07,42.35,24.1.23.23,7.72,8.54s5.28-9.45,10.59-9.21c5.31.24,21.71,0,21.71,0,0,0,18.57-.49,20.99,0,2.41.49,29.43,4.5,29.43,4.5l5.07-11.49s-6.6-7.4,0-11.9c6.59-4.51,8.04-5.63,8.04-5.63l3.86-16.89,9.65-9.98,1.13-8.37s5.15-7.56,5.15-14.8-4.83-16.89-4.83-16.89c0,0,4.83-6.11,1.13-10.78-3.7-4.67,8.85-10.94,8.85-10.94l2.09-6.44,21.71-20.43,13.99-1.77s1.24-13.66,8.45-18.75h0c.57-.41,1.19-.76,1.84-1.04,0,0-10.13-11.26-11.1-14.16ZM107.58,201.36l-6.08,4.68-6.32-1.87-1.06-2.34-.35-2.46.35-2.45,1.06-2.46,2.34-1.64,2.46-.7h2.69l2.69.35,4.68,2.69-2.46,6.2Z"/>
        <polyline class="cls-3" points="80.4 106.69 79.85 97.82 78.04 84.54 78.04 82.9 80.17 79.6 79 75.66 83.79 60.42 82.51 51.58 61.98 48.98 56.73 46.59 49.8 41.77 41.92 39.96 38.08 37.62 32.13 31.74 29.65 29.03 29.13 27.92 28.37 23.9"/>
        <polyline class="cls-3" points="91.5 124.32 93.81 116.04 100.41 106.98 111.39 103.79 116.82 98.03 118.85 89.61 114.27 75.66 120.02 71.39 130.36 71.5 133.77 65.64 138.67 61.38 148.82 56.15"/>
        <path class="cls-3" d="M97.57,169.81l1.74,3.89,1.1,8.18,5.35,3.67,6.69-.05,5.65,2.45,3.73,5.11-.41,6.58,4.15,3.09,4.1,2.91,4.73,2.44,4.48-4.69,1.33-8,.9-10.54s.29-18.73-.85-20.99l2.34-10.55-.11-7.46,3.2-5.75,6.39-4.44,8.22-6.46,7.77-5.84s5.59-11.1,6.18-13.96l8.74-1.7,18.22,2.24,8.95-2.02,2.88-7.03,4.41-5.82,6.19-6.63,7.29-11.93-20.53-13.37"/>
        <polyline class="cls-3" points="159.34 280.79 161.68 275.01 161.79 271.39 163.6 268.73 164.88 263.82 164.98 258.07 167.01 253.28 165.41 248.48 162.96 244.54 160.87 240.19 164.03 225.15 177.02 217.15 182.68 209.5 191.52 196.8 198.65 190.94 208.21 196.16 220.22 204.61 225.54 208.1 229.77 211.51 217.3 230.47 222.08 237.9 228.06 243.15 234.14 247.63 234.14 254.87 225.54 264.44 220.99 278.07"/>
        <polyline class="cls-3" points="278.57 187.32 267.91 186.36 262.64 195.04 255.87 201.49 248.95 200.53 247.24 193.07 250.01 185.62 253.85 179.76 254.91 176.99 264.18 177.2 268.12 186.32"/>
        <polyline class="cls-3" points="207.39 195.63 213.49 191.21 221.46 189.13 227.32 189.24 232.22 185.62 234.14 176.99 236.69 170.27 237.28 164.53 237.86 161 242.55 152.11 243.3 150.7 240.21 142.57 241.9 134.63 243.97 129.96 245.75 119.87 248.52 115.19 249.48 106.66 245.32 98.56 230.19 77.89"/>
        <polyline class="cls-3" points="254.91 176.99 254.21 175.36 243.3 150.7"/>
        <path class="cls-3" d="M142.5,153.81s7.67,8.39,8.03,10.18,2.2,6.71,2.2,6.71l5.67,9.61,14.58,12.88,4.16,7.67-.59,4.67.48,6.09-1.28,2.77,1.28,2.77"/>
        <text class="cls-2" transform="translate(64.49 37.12)"><tspan x="0" y="0">Ağstafa</tspan></text>
        <text class="cls-2" transform="translate(171.12 258.27)"><tspan x="0" y="0">Daşkəsən</tspan></text>
        <text class="cls-2" transform="translate(101.9 226.59)"><tspan x="0" y="0">Gədəbəy</tspan></text>
        <text class="cls-1" transform="translate(223.42 235.87)"><tspan x="0" y="0">Göygöl</tspan></text>
        <text class="cls-1" transform="translate(230.81 195.91)"><tspan x="0" y="0">Gəncə</tspan></text>
        <text class="cls-2" transform="translate(36.02 63.15)"><tspan x="0" y="0">Qazax</tspan></text>
        <text class="cls-2" transform="translate(177.13 150.7)"><tspan x="0" y="0">Şəmkir</tspan></text>
        <text class="cls-1" transform="translate(258.33 124.32)"><tspan x="0" y="0">Samux</tspan></text>
        <text class="cls-2" transform="translate(134.12 103.85)"><tspan class="cls-7" x="0" y="0">T</tspan><tspan x="6.39" y="0">ovuz</tspan></text>
      </g>
      <text class="cls-5" transform="translate(137.97 173.55)"><tspan x="0" y="0">QƏRB RETSİ</tspan></text>
    </g>
  </g>
</svg>