<?xml version="1.0" encoding="UTF-8"?>
<svg id="Layer_2" data-name="Layer 2" xmlns="http://www.w3.org/2000/svg" viewBox="0 0 487.72 400.65">
  <defs>
    <style>
      .cls-1 {
        fill: #1f92bf;
        font-family: ArialMT, Arial;
        font-size: 12.79px;
      }

      .cls-2 {
        fill: none;
        stroke: #8c8c8c;
        stroke-miterlimit: 10;
        stroke-width: .34px;
      }

      .cls-3 {
        fill: #fff;
        font-family: Montserrat-Black, Montserrat;
        font-size: 14.04px;
        font-weight: 800;
        isolation: isolate;
      }

      .cls-4 {
        fill: #31b1f0;
        stroke: #000;
        stroke-linejoin: round;
        stroke-width: 2.01px;
      }
    </style>
  </defs>
  <g id="Layer_1-2" data-name="Layer 1">
    <g>
      <path class="cls-4" d="M484.9,282.4s-6.83-3.26-9.25-1.17c-2.41,2.09-6.27,7.08-4.98,10.29,1.28,3.22-4.02,4.51-4.02,4.51v11.26l-4.18,5.31,6.11,5.31,1.49,16.85-.24,17.86-1.33,9.65-10.61,14.48s15.56-7.6,16.4-3.5c.11.56.23,1.17.35,1.81.76,4.11,1.58,9.53,1.58,9.53,0,0-6.75,17.9-17.85,14.64-11.1-3.26-14.96-11.46-14.96-11.46l-8.2-4.95-11.86-9.33s4.5-2.09,4.5-6.44,1.45-14.48,3.54-15.93c2.09-1.45,16.24-12.07,16.24-12.07,0,0-9.16-10.94-12.87-12.39l-8.68,2.41-4.5-6.92-10.46-8.85,3.42-9.65,5.15-3.06,4.58-1.69,5.55-11.54-2.9-8.21.97-11.1-5.63-.8-.48,7.4s-9.97,12.39-9.81,13.68l-9.97.64s-2.09,8.36-2.74,9.01c-.64.64-6.43-1.45-7.88-.32-1.45,1.13-12.55,6.44-12.55,6.44l-1.28,5.15-12.71,3.22.64,13.03s-18.66,3.22-20.91,5.63l-9.33-14.48,7.4-2.41-1.12-10.62-5.47-1.77-8.52.32-4.18-5.95-23.84,1.69-.72-4.34-13.03,2.54-10.49-2.17-14.11,5.07-15.2-7.96,7.24-7.6-3.98-11.22-10.5,7.96-4.7-8.69-7.6,2.17-34.74-11.95-9.05-6.52-5.07,3.26s-23.88-22.08-36.55-24.26l-7.6,1.21-23.07-11.22c.57-.41,1.19-.76,1.84-1.04,0,0-10.13-11.26-11.1-14.16-.96-2.9,1.13-10.78,1.13-10.78l-10.29-6.76-6.11,2.89-6.02-2.89.54-.76,1.05-1.4,1.52-7.72.94-8.31,1.75-6.55,1.05-1.41,2.45-2.34,1.06-1.52.35-1.52.23-4.33.35-1.75,1.52-1.99,1.52.23.59-.23-1.17-3.51-5.73-8.78-3.51-3.98-1.17-2.11-.23-.12-1.29-.81-2.81,1.05-2.81-6.79-9-5.26-17.67-7.49-8.54-7.95-3.63-.94-2.11-1.06-9.59-6.55-3.04-4.09-1.64-5.27-1.75-11.23-3.98-7.73-.47-1.41-2.58.12-1.17,1.87-.94,2.22-1.52,1.28-4.91-4.09-2.34-10.88-.12-12.4,1.75-8.31,3.51-3.75,3.98-.47,8.54,1.99,3.74-.35,2.92-1.41,2.69-2.45,7.72-9.6,3.98-6.32,6.9-14.28,3.86.94,4.91-.12,8.42,1.17,3.28,1.87,1.05,4.68-.94,9.83,1.05,4.22,3.16,2.69h3.51l3.16-2.11,5.85-5.15,3.74-1.4,7.37-1.52,2.22-1.64,1.05-.82,3.04-3.16h1.52l.82,2.81,1.64,9.48.94,3.39,1.75,2.81,12.05,11.12,3.04,1.87,2.34.7,4.68.58,2.11,1.05.94,1.41.94,4.45.7,1.87,2.46,3.39,9.01,7.73,4.45,7.25,1.64,7.26,2.58,4.56h.23l7.49-1.05,3.39-1.41,3.51-.7,3.28.81,2.92,3.4,1.28,4.21.7,4.09,1.29,3.63,3.16,2.45.47.35,1.41,1.52.82,2.11.58,2.34,1.05,2.45,5.62,7.14,1.4,2.93.59,5.85-.35,12.76,1.87,5.5,3.16,3.16,13.81,8.43,4.21,1.52,1.52.58,18.83,1.87,3.98,1.29,5.03,7.25,3.39,2.58,3.63.12,6.43-4.33,3.51-1.4,3.74.47,9.48,4.8,5.38,2.81,3.51.7,12.64-1.17,2.81-.23,3.93-1.19s3.67,6.18,4.15,8.36l20.99-2.66-1.45,15.2,9.65,2.66,4.1,5.79h5.31s7.48,7.48,25.09,12.55c17.61,5.07,28.47,9.89,29.43,10.62.96.72,7.72-.72,12.54,6.52,4.83,7.24,32.57,24.38,35.71,25.1,3.14.72,7,.72,10.13,0,3.14-.72.48-6.27-2.41-8.93-2.9-2.65-7-16.73-6.52-18.87.48-2.11,15.63-5.92,15.92-5.99-.09.23-3.59,8.98-2.17,13.03,1.45,4.1,12.18,4.95,12.18,4.95v17.86s8.22,14.28,9.2,18.25c.06.22.09.42.09.57.12,2.89-1.81,9.53-1.81,9.53Z"/>
      <text class="cls-1" transform="translate(347.57 270.76)"><tspan x="0" y="0">İsmayıllı</tspan></text>
      <text class="cls-1" transform="translate(434.28 276.38)"><tspan x="0" y="0">Şamaxı</tspan></text>
      <text class="cls-1" transform="translate(267.7 240.95)"><tspan x="0" y="0">Qəbələ</tspan></text>
      <text class="cls-1" transform="translate(221.88 192.81)"><tspan x="0" y="0">Oğuz</tspan></text>
      <text class="cls-1" transform="translate(114.98 122.97)"><tspan x="0" y="0">Qax</tspan></text>
      <text class="cls-1" transform="translate(138.31 171.47)"><tspan x="0" y="0">Şəki</tspan></text>
      <text class="cls-1" transform="translate(73.69 78.92)"><tspan x="0" y="0">Zaqatala</tspan></text>
      <polyline class="cls-2" points="19.3 78.83 23.67 79.79 29.1 82.88 34.64 82.34 44.55 75.1 51.28 73.56 57.12 71.58 62.45 67.93 66.71 62.31 68.68 55.44 71.2 49.46 71.83 48.04 77.15 43.77 86.29 37.67 90.11 34.85 96.01 28.54 98.57 20.37 97.42 15.13"/>
      <polyline class="cls-2" points="82.93 132.75 84.19 126.56 92.18 116.33 98.08 103.36 104.11 93.53 113.49 90.44 125.53 91.08 137.25 94.81 148.01 92.47 154.67 83.07"/>
      <polyline class="cls-2" points="137.28 234.81 136.82 211.06 123.86 190.39 116.04 186.23 114.98 176.85 116.34 164.9 119.99 156.29 123.29 153.52 125.63 150.11 127.45 145.74 130.43 142.01 137.46 137.54 161.12 126.99 176.11 116.61 180.22 109.12 182.47 99.08"/>
      <polyline class="cls-2" points="249.91 273.13 252.22 272.51 253.71 266.14 235.94 256.65 220.04 244.41 216.95 240.89 214.47 236.48 212.47 227.15 209.92 226.93 207.25 227.79 205.38 225.45 206.29 222.35 202.24 217.77 199.26 212.12 201.16 203.08 203.21 198.3 205.87 192.44 213.16 176.36 216.71 154.67"/>
      <polygon class="cls-2" points="176.99 177.34 184.45 179.52 187.11 178.13 189.99 171.74 189.47 166.96 185.73 160.34 183.49 158.74 181.57 160.34 178.9 169.13 177.42 173.76 176.99 177.34"/>
      <polyline class="cls-2" points="253.71 266.14 254.02 251.16 257.93 237.11 263.72 226.93 264.36 221.07 263.62 215.43 274.38 193.69 275.63 188.13 277.36 181.86 275.98 176.22 276.32 167.99"/>
      <polyline class="cls-2" points="422.26 267.28 422.26 264.97 422.26 260.49 424.22 250.51 418.42 230.99"/>
      <text class="cls-1" transform="translate(19.3 56.06)"><tspan x="0" y="0">Balakən</tspan></text>
      <text class="cls-3" transform="translate(133.7 216.9)"><tspan x="0" y="0">ŞİMAL QƏRB RETSİ</tspan></text>
      <polyline class="cls-2" points="283.02 295.22 288.8 288.11 293.12 281.88 296.43 275.63 301.76 271.05 310.07 267.32 317.11 261.78 317.11 256.09 317.85 250.91 320.54 249.9 323.07 249.43 328.19 245.05 328.83 237.48 324.41 229.72 322.54 222.03 323.59 219.01 325.1 216.6 330.46 217.55 331.93 212.57 332.66 209.25 334.69 205.09 340.96 197.1"/>
    </g>
  </g>
</svg>