<?xml version="1.0" encoding="UTF-8"?>
<svg id="Layer_2" data-name="Layer 2" xmlns="http://www.w3.org/2000/svg" viewBox="0 0 220.01 297.43">
  <defs>
    <style>
      .cls-1 {
        fill: #1f92bf;
        font-family: ArialMT, Arial;
        font-size: 12.79px;
      }

      .cls-2 {
        fill: none;
        stroke: #8c8c8c;
        stroke-miterlimit: 10;
        stroke-width: .34px;
      }

      .cls-3 {
        fill: #fff;
        font-family: Montserrat-Black, Montserrat;
        font-size: 14.04px;
        font-weight: 800;
        isolation: isolate;
      }

      .cls-4 {
        fill: #31b1f0;
        stroke: #000;
        stroke-linejoin: bevel;
        stroke-width: 2.01px;
      }

      .cls-5 {
        letter-spacing: -.04em;
      }
    </style>
  </defs>
  <g id="Layer_1-2" data-name="Layer 1">
    <g>
      <path class="cls-4" d="M218.07,230.23l-1.17,7.84.23,2.46,1.52,2.69-2.22-1.17-1.64-1.52-1.29-1.76-1.05-1.99h-1.05l.59,3.39,1.64,3.86,2.22,3.39,2.81,1.99v1.76l-4.09-.94-2.57-2.93-2.34-3.28-9.24-6.2-6.08,2.34-4.68,6.09-1.87,7.37.12,25.74-.59,3.04-.94,4.22-2.46,7.49-.76,3.05c.01-.25.73-13.11-6.44-17.57-7.24-4.5-13.19-10.94-13.19-10.94h-14.47l-4.34-13.35h-7.88l-1.29,8.85-22.84,14.8-2.9,17.37-7.56-4.99v-10.13l-12.54-3.22,2.25-21.88-6.23-17.94,13.03-26.38s-1.45-14.96-4.34-17.06c-2.89-2.09-.16-16.89-.16-16.89,0,0-4.18-11.42-20.43-12.23-16.24-.8-22.35,1.29-22.35,1.29l-10.61-11.26-9.43,11.11-10.55-6.29-3.38-1.33,5.07-7.36-.48-14.96s-19.18-6.64-21.11-10.01c0,0,5.71-21.08,5.55-23.97,0,0-7.08-9.98-4.83-12.87,1-1.28,2.54-4.76,3.94-8.24,1.77-4.37,3.33-8.75,3.33-8.75l8.05,2.71,3.22-10.14,10.13-6.27s12.22-2.89,12.55-5.31c.32-2.41,2.41-9.33,4.18-9.98,1.77-.64-1.45-6.92-1.45-6.92l4.83-12.23-3.22-19.95,7.08-4.02,11.86,9.33,8.2,4.95s3.86,8.2,14.96,11.46c11.1,3.26,17.85-14.64,17.85-14.64,0,0-.81-5.41-1.58-9.53,4.6.01,8.26.44,11.15,1.09,1.25.28,2.37.61,3.35.96h0c6.85,2.45,7.58,6.23,7.58,6.23v7.96l10.86,8.32,2.9,17.44s22.07-.06,32.21,7.18c10.13,7.24,7.24,33.31,7.24,33.31,0,0,13.75,8.32,19.54,14.12,5.79,5.79-5.43,13.76-5.43,13.76l10.86,15.93-1.68,41.49h0s-1.67,2.78-1.67,2.78l.12,4.09-2.11,3.86-1.87,5.27-1.4,5.5-.82,4.68.12,3.28.12,3.16,1.76,4.33,16.96,15.45,2.1,2.69,1.52,3.04-.12,1.05-.82.82Z"/>
      <path class="cls-2" d="M5.64,81.73l6.09,9.7,3.84-.43,15.77-8.2,6.39-1.07s4.12,2.2,4.54,2.26,3.56,3.07,3.56,3.07l-2.56,6.64,1.97,3.93,2.35,1.81,2.61.42,1.81-2.02,3.69-2.54,5.15.59s12.82,7.25,15.02,9.2l7.67,3.52,6.38,7.97-.89,5.12-.91,3.32.93,6.71,2.16,4.69v8.2s-4.7,7.03-4.7,7.03l-8.91,4.09-8.56,2.03-5.6,4.09,5.74,3.63"/>
      <polyline class="cls-2" points="43.71 50.54 46.46 49.02 63.4 49.23 70.87 50.54 78.59 53.37 83.75 55.94 83.52 59.49 83.75 63.3 84.61 63.72 85.05 69.28 91.21 72 95.44 72.85 98.59 73.47 99.34 77.49 101.87 78.1 108.66 79.3 115.82 81.09 122 86.1 125.06 85.35 129 86.33 133.09 86.51 136.03 86.51 137.99 88.3 137.37 96.79 132.96 102.13 130.36 104.29 128.61 104.1 130.24 107.98 133.8 113.64 134.63 123.87 135 125.2 136.29 127.41 136.62 134.9 136.52 137.09 139.45 141.31 143.74 146.13 143.74 147.82 141.82 151.84 139.7 158.75 137.24 160.36 134.5 161.59 129.86 165.46 123.41 169.56 124.89 174.7 123.7 178.26 114.7 173.89 102.72 175.06 94.04 177.19"/>
      <polyline class="cls-2" points="122 86.1 121.37 95.47 122.75 99.52 126.86 102.55 128.61 104.1"/>
      <path class="cls-2" d="M195.01,112.81l-2.69-1.66-9.35,1.66-24.72-3.64s-12.21-7.61-12.5-7.73-12.79.7-12.79.7"/>
      <polyline class="cls-2" points="96.84 215.66 117.94 234.66 124.9 235.48 131.39 230.79 134.42 229.9 137.71 226.71 135.03 215.66 139.9 207.46 142.57 205.54 143.34 203.93 148.22 199.25 150.43 192.68 154.61 188.6 166.97 202.66 171.02 204.69 175.28 205.43 178.58 204.79 181.78 202.56 195.84 198.19"/>
      <text class="cls-1" transform="translate(91.21 64.01)"><tspan x="0" y="0">Hacıqabul</tspan></text>
      <text class="cls-1" transform="translate(132.96 247.26)"><tspan x="0" y="0">Neftçala</tspan></text>
      <text class="cls-1" transform="translate(23.79 130.18)"><tspan x="0" y="0">Saatlı</tspan></text>
      <text class="cls-1" transform="translate(55.3 95.1)"><tspan x="0" y="0">Sabirabad</tspan></text>
      <text class="cls-1" transform="translate(152.21 165.46)"><tspan x="0" y="0">Salyan</tspan></text>
      <text class="cls-1" transform="translate(143.74 96.4)"><tspan x="0" y="0">Şirvan</tspan></text>
      <text class="cls-3" transform="translate(70.99 143.07)"><tspan x="0" y="0">ŞİR</tspan><tspan class="cls-5" x="24.6" y="0">V</tspan><tspan x="35.08" y="0">AN RETSİ</tspan></text>
    </g>
  </g>
</svg>