<?xml version="1.0" encoding="UTF-8"?>
<svg id="Layer_2" data-name="Layer 2" xmlns="http://www.w3.org/2000/svg" viewBox="0 0 193.47 148.69">
  <defs>
    <style>
      .cls-1 {
        fill: #1f92bf;
        font-family: ArialMT, Arial;
        font-size: 12.79px;
      }

      .cls-2 {
        fill: #fff;
        font-family: Montserrat-Black, Montserrat;
        font-size: 12.07px;
        font-weight: 800;
        isolation: isolate;
      }

      .cls-3 {
        letter-spacing: 0em;
      }

      .cls-4 {
        letter-spacing: -.05em;
      }

      .cls-5 {
        fill: #31b1f0;
        stroke: #000;
        stroke-width: 2.01px;
      }

      .cls-5, .cls-6 {
        stroke-linejoin: round;
      }

      .cls-6 {
        fill: none;
        stroke: #aa7d0b;
        stroke-linecap: round;
        stroke-width: .17px;
      }

      .cls-7 {
        letter-spacing: 0em;
      }
    </style>
  </defs>
  <g id="Layer_1-2" data-name="Layer 1">
    <g>
      <path class="cls-5" d="M192.47,85.79l-4.05,11.7s-36.19-14-41.25-19.31l-5.31-5.79s-2.17,23.65-6.03,28.72c-3.86,5.07-27.98,2.17-46.32,5.07-18.34,2.89-28.23,16.65-31.84,24.86-3.62,8.21-7.96,16.65-7.96,16.65l-17.43-2.98h0c-.99-.35-2.1-.68-3.35-.96-2.89-.65-6.55-1.08-11.15-1.09-.12-.65-.24-1.26-.35-1.81-.84-4.1-16.4,3.5-16.4,3.5l10.61-14.48,1.33-9.65.24-17.86-1.49-16.85-6.11-5.31,4.18-5.31v-11.26s5.31-1.29,4.02-4.51c-1.29-3.22,2.57-8.21,4.98-10.29,2.41-2.09,9.25,1.17,9.25,1.17,0,0,.82-2.82,1.36-5.58.29-1.48.5-2.94.45-3.95,0-.15-.04-.35-.09-.57l4.27-2.49s-.96-19.18,6.27-19.79c7.24-.6,8.32,0,8.32,0V2.28s8.69-3.62,10.49,1.33c1.81,4.95-4.46,2.9,12.3,8.93s36.91,1.69,36.91,1.69l9.36-10.08,5.17,5.86,1.52,2.22.23.47,1.64,3.98,3.86,3.28,8.31,5.15,3.98-1.05,3.51,3.04,3.28,4.09,3.63,1.99,1.99,2.34-.81,5.26-3.16,8.9-1.17,4.68-.23,2.45.23,2.7.82,1.52,2.34,3.04.58,1.29.12.23,1.28,2.11,3.16,3.04,3.63,2.69,2.46,1.17,7.83.47,3.51.94,2.93,1.64,6.55,5.85.94.47,2.57,1.29,4.11.53Z"/>
      <path class="cls-6" d="M29.42,44.93l9.12,2.91,9.35,7.01,4.26,4.05s14.35,16.67,18.97,18.98,9.8,3.29,9.8,3.29l17.58,18.22,9.37,4.98"/>
      <polyline class="cls-6" points="141.85 72.39 147.35 63.79 151.79 62.77"/>
      <text class="cls-2" transform="translate(26.94 74.35)"><tspan x="0" y="0">SUM</tspan><tspan class="cls-7" x="28.91" y="0">Q</tspan><tspan class="cls-4" x="39.03" y="0">A</tspan><tspan class="cls-3" x="48.1" y="0">Y</tspan><tspan x="56.61" y="0">IT RETSİ</tspan></text>
      <text class="cls-1" transform="translate(87.85 43.32)"><tspan x="0" y="0">Xızı</tspan></text>
      <text class="cls-1" transform="translate(21.94 101.14)"><tspan x="0" y="0">Qobustan</tspan></text>
    </g>
  </g>
</svg>