<?xml version="1.0" encoding="UTF-8"?>
<svg id="Layer_2" data-name="Layer 2" xmlns="http://www.w3.org/2000/svg" viewBox="0 0 271.8 262.3">
  <defs>
    <style>
      .cls-1 {
        fill: #1f92bf;
        font-family: ArialMT, Arial;
        font-size: 12.79px;
      }

      .cls-2 {
        fill: none;
        stroke: #8c8c8c;
        stroke-miterlimit: 10;
        stroke-width: .34px;
      }

      .cls-3 {
        fill: #fff;
        font-family: Montserrat-Black, Montserrat;
        font-size: 14.04px;
        font-weight: 800;
        isolation: isolate;
      }

      .cls-4 {
        letter-spacing: -.01em;
      }

      .cls-5 {
        letter-spacing: -.04em;
      }

      .cls-6 {
        fill: #31b1f0;
        stroke: #000;
        stroke-linejoin: round;
        stroke-width: 2.01px;
      }
    </style>
  </defs>
  <g id="Layer_1-2" data-name="Layer 1">
    <g>
      <path class="cls-6" d="M270.79,225.56l-9.36,10.08s-20.14,4.34-36.91-1.69c-16.77-6.03-10.49-3.98-12.3-8.93-1.81-4.95-10.49-1.33-10.49-1.33v15.33s-1.09-.6-8.32,0c-7.24.6-6.27,19.79-6.27,19.79l-4.27,2.49c-.98-3.98-9.2-18.25-9.2-18.25v-17.86s-10.73-.85-12.18-4.95c-1.43-4.05,2.08-12.8,2.17-13.03-.29.07-15.44,3.88-15.92,5.99-.48,2.13,3.62,16.21,6.52,18.87,2.89,2.66,5.55,8.21,2.41,8.93-3.14.72-7,.72-10.13,0-3.14-.72-30.88-17.86-35.71-25.1-4.82-7.24-11.58-5.79-12.54-6.52-.97-.72-11.82-5.55-29.43-10.62-17.61-5.07-25.09-12.55-25.09-12.55h-5.31l-4.1-5.79-9.65-2.66,1.45-15.2-20.99,2.66c-.48-2.17-4.15-8.36-4.15-8.36l3.79-1.15,4.21-2.69.82-2.34-.94-3.16-.82-4.92.47-5.03,1.75-2.34,2.34-1.75,2.69-3.28,1.52-4.33.94-3.86,1.87-1.99,4.8.82,3.98-2.34,6.08-17.32,3.39-6.79,5.97-3.74,20.94-3.98,5.38-2.93,9.59-8.31,15.67-9.83,4.21-4.56,3.63-7.03,7.61-21.18,1.29-1.52,1.11-1.45,11.29-14.7,8.77-14.16,1.99,1.64,5.5,3.39,6.44,5.85,16.03,22.35,6.2,6.32,2.57,3.74,1.05,5.97,12.4,14.04,7.02,14.98,3.63,1.4,3.04,3.16,2.34,3.86,1.52,3.04,4.21,6.32.7,1.41.94,1.05,4.45,1.28,1.52.94,2.81,4.09,6.55,13.69,5.5,11.59,2.58,3.86,2.34,4.57,1.05,5.26,2.22,20.95,1.17,4.44,1.99,1.87,1.28,2.81,3.04,17.2,8.66,14.51,16.71,18.95Z"/>
      <path class="cls-2" d="M113.3,29.87h2.64s4.79,5.33,4.79,5.33l-4.16,12.79,3.3,11.83,4.9.43,4.48,1.28-.37,5.17-2.72,3.89,3.5,7.78,2.14,9.98s14.06,22.94,14.89,27.25l3.33,4.65,8.81-3.41,3.31,3.64h6.48l5.48-3,5.75,2.13,6.81.22,7.79-3s15.24,1.01,18.01,2.45l9.7-.32.82-.25"/>
      <polyline class="cls-2" points="18.2 163.56 31.21 153.59 86.4 113.53 97.4 104.24 111.25 97.2 121.69 93.9 131.81 88.33"/>
      <polyline class="cls-2" points="162.15 120.45 160.37 130.77 160.58 140.57 163.03 143.56 163.03 147.07 159.21 151.93 148.86 161.46 144.06 173.79 157.95 188.96 155.89 195.66 151.07 199.65 147.79 204.61 150.56 211.3"/>
      <polyline class="cls-2" points="174.14 235.14 180.72 230.82 176.88 208.22 179.4 202.73 185.08 198.16 191.91 197.37 195.04 192.99 196.38 189.91 196.27 180.85 192.83 171.65 197.8 164.2 212.04 164.23 223.55 159.97 237.72 171.47 238.53 171.41"/>
      <text class="cls-3" transform="translate(63.86 139.64)"><tspan class="cls-5" x="0" y="0">X</tspan><tspan class="cls-4" x="10.14" y="0">A</tspan><tspan x="21.32" y="0">ÇMAZ RETSİ</tspan></text>
      <text class="cls-1" transform="translate(57.6 102.23)"><tspan x="0" y="0">Qusar</tspan></text>
      <text class="cls-1" transform="translate(84.97 171.98)"><tspan x="0" y="0">Quba</tspan></text>
      <text class="cls-1" transform="translate(138.64 86.44)"><tspan x="0" y="0">Xaçmaz</tspan></text>
      <text class="cls-1" transform="translate(171.97 153.98)"><tspan x="0" y="0">Dəvəçi</tspan></text>
      <text class="cls-1" transform="translate(194.83 211.31)"><tspan x="0" y="0">Siyəzən</tspan></text>
    </g>
  </g>
</svg>