<svg width="57" height="41" viewBox="0 0 57 41" fill="none" xmlns="http://www.w3.org/2000/svg">
<path d="M51.9783 39.6094L5.97827 39.6094C3.49299 39.6094 1.47827 37.5947 1.47827 35.1094L1.47827 5.10938C1.47827 2.6241 3.49299 0.60938 5.97827 0.609379L51.9783 0.609375C54.4635 0.609376 56.4783 2.62409 56.4783 5.10938L56.4783 35.1094C56.4783 37.5947 54.4636 39.6094 51.9783 39.6094Z" fill="#31B1F0" stroke="#31B1F0"/>
<rect width="31.6948" height="31.6948" transform="translate(13.4272 4.26196)" fill="#31B1F0"/>
<path d="M41.0017 17.6947L31.1993 9.48346C30.5768 8.96142 29.7903 8.67529 28.9779 8.67529C28.1654 8.67529 27.379 8.96142 26.7564 9.48346L16.9549 17.6947C15.7112 18.7369 16.449 20.764 18.0705 20.764H18.9592V29.8142C18.9592 30.2729 19.1414 30.7128 19.4658 31.0371C19.7901 31.3615 20.23 31.5437 20.6887 31.5437H25.6434V25.6985C25.6433 25.2605 25.7295 24.8268 25.897 24.4222C26.0646 24.0175 26.3102 23.6498 26.6199 23.3401C26.9296 23.0304 27.2973 22.7848 27.702 22.6172C28.1066 22.4497 28.5403 22.3635 28.9783 22.3636C29.8628 22.3636 30.711 22.7149 31.3365 23.3404C31.9619 23.9658 32.3132 24.814 32.3132 25.6985V31.5437H37.268C37.7266 31.5437 38.1665 31.3615 38.4909 31.0371C38.8152 30.7128 38.9974 30.2729 38.9974 29.8142V20.764H39.8853C41.5085 20.764 42.2455 18.7369 41.0017 17.6947Z" fill="white"/>
</svg>
