<svg width="57" height="41" viewBox="0 0 57 41" fill="none" xmlns="http://www.w3.org/2000/svg">
<path d="M16.4867 21.7297L24.6534 29.8964C24.8734 30.1089 25.1681 30.2265 25.474 30.2238C25.7799 30.2212 26.0725 30.0985 26.2888 29.8822C26.5051 29.6659 26.6278 29.3732 26.6305 29.0673C26.6331 28.7615 26.5155 28.4668 26.303 28.2467L20.1279 22.0715L40.6449 22.0715C40.9543 22.0715 41.251 21.9486 41.4698 21.7298C41.6886 21.511 41.8115 21.2143 41.8115 20.9049C41.8115 20.5955 41.6886 20.2987 41.4698 20.0799C41.251 19.8611 40.9543 19.7382 40.6449 19.7382L20.1279 19.7382L26.303 13.563C26.4144 13.4554 26.5033 13.3267 26.5645 13.1844C26.6256 13.042 26.6578 12.8889 26.6591 12.734C26.6605 12.5791 26.631 12.4255 26.5723 12.2821C26.5137 12.1387 26.427 12.0085 26.3175 11.8989C26.2079 11.7894 26.0777 11.7028 25.9343 11.6441C25.7909 11.5854 25.6373 11.5559 25.4824 11.5573C25.3275 11.5586 25.1744 11.5908 25.032 11.6519C24.8897 11.7131 24.761 11.802 24.6534 11.9134L16.4867 20.08C16.268 20.2988 16.1451 20.5955 16.1451 20.9049C16.1451 21.2142 16.268 21.5109 16.4867 21.7297Z" fill="#1F92BF"/>
<path d="M51.9783 40.4048L5.97827 40.4048C3.49299 40.4048 1.47827 38.3901 1.47827 35.9048L1.47827 5.90479C1.47827 3.41951 3.49299 1.40479 5.97827 1.40479L51.9783 1.40479C54.4635 1.40479 56.4783 3.4195 56.4783 5.90479L56.4783 35.9048C56.4783 38.3901 54.4636 40.4048 51.9783 40.4048Z" stroke="#31B1F0"/>
</svg>
