<svg width="60" height="60" viewBox="0 0 60 60" fill="none" xmlns="http://www.w3.org/2000/svg">
<path d="M13.5597 9.66799C13.5597 9.17759 13.3649 8.70727 13.0181 8.3605C12.6713 8.01374 12.201 7.81893 11.7106 7.81893C11.2202 7.81893 10.7499 8.01374 10.4031 8.3605C10.0564 8.70727 9.86157 9.17759 9.86157 9.66799V50.3473C9.86157 50.8377 10.0564 51.308 10.4031 51.6548C10.7499 52.0016 11.2202 52.1964 11.7106 52.1964C12.201 52.1964 12.6713 52.0016 13.0181 51.6548C13.3649 51.308 13.5597 50.8377 13.5597 50.3473V9.66799ZM28.9439 8.5832C26.0766 6.61827 22.1886 8.66703 22.1886 12.1383V47.8745C22.1886 51.3581 26.1062 53.4069 28.9685 51.4173L54.8504 33.4148C55.4237 33.016 55.8916 32.484 56.2139 31.8645C56.5362 31.245 56.7033 30.5565 56.7009 29.8582C56.6985 29.1598 56.5266 28.4725 56.2 27.8553C55.8734 27.238 55.4018 26.7093 54.8258 26.3145L28.9439 8.5832Z" fill="#00BAFF"/>
</svg>
