<svg width="57" height="41" viewBox="0 0 57 41" fill="none" xmlns="http://www.w3.org/2000/svg">
<path d="M5.47827 0.536621H51.4783C53.9636 0.536621 55.9783 2.55134 55.9783 5.03662V35.0366C55.9783 37.5219 53.9636 39.5366 51.4783 39.5366H5.47827C2.99299 39.5366 0.978271 37.5219 0.978271 35.0366V5.03662C0.978271 2.55134 2.99299 0.536621 5.47827 0.536621Z" fill="#31B1F0" stroke="#31B1F0"/>
<path d="M28.0791 27.7249V23.1232H31.041C35.1765 23.1232 38.7586 25.497 40.5086 28.9441C40.6643 29.2513 41.1199 29.2044 41.2172 28.8739C41.504 27.8982 41.6499 26.8866 41.6504 25.8696C41.6504 19.9996 36.9113 15.2602 31.041 15.2602H28.0791V10.6587C28.0791 10.3395 27.7121 10.1594 27.4598 10.3552L16.4604 18.8884C16.4142 18.9243 16.3769 18.9703 16.3511 19.0229C16.3254 19.0754 16.312 19.1332 16.312 19.1917C16.312 19.2502 16.3254 19.3079 16.3511 19.3605C16.3769 19.4131 16.4142 19.459 16.4604 19.495L27.4598 28.0284C27.7121 28.2242 28.0791 28.0442 28.0791 27.7249Z" fill="white"/>
</svg>
