<svg width="57" height="41" viewBox="0 0 57 41" fill="none" xmlns="http://www.w3.org/2000/svg">
<path d="M51.9783 39.5366L5.97827 39.5366C3.49299 39.5366 1.47827 37.5219 1.47827 35.0366L1.47827 5.03663C1.47827 2.55134 3.49299 0.536626 5.97827 0.536626L51.9783 0.536622C54.4635 0.536622 56.4783 2.55134 56.4783 5.03662L56.4783 35.0366C56.4783 37.5219 54.4636 39.5366 51.9783 39.5366Z" stroke="#31B1F0"/>
<path fill-rule="evenodd" clip-rule="evenodd" d="M28.9787 26.2086C28.8803 26.2088 28.7836 26.1837 28.6976 26.1358C28.6117 26.0879 28.5395 26.0188 28.4878 25.9351C28.0103 25.1885 27.5216 24.4492 27.022 23.7172C24.6664 20.2207 21.4407 15.4346 21.4407 12.7163C21.4407 8.55886 24.8206 5.17822 28.9787 5.17822C33.1354 5.17822 36.5167 8.55886 36.5167 12.7163C36.5167 15.4346 33.2904 20.2234 30.9354 23.7172C30.4357 24.4491 29.9471 25.1885 29.4696 25.9351C29.4183 26.0191 29.3461 26.0885 29.2601 26.1364C29.1741 26.1843 29.0772 26.2092 28.9787 26.2086ZM28.9787 6.33892C25.4616 6.33892 22.6014 9.19988 22.6014 12.7163C22.6014 15.0788 25.8394 19.8868 27.9846 23.0693C28.35 23.6137 28.686 24.1094 28.9787 24.557C29.2708 24.1094 29.6074 23.6137 29.9728 23.0693C32.1153 19.8868 35.3533 15.0788 35.3533 12.7163C35.356 9.19988 32.4944 6.33892 28.9787 6.33892Z" fill="#1F92BF"/>
<path fill-rule="evenodd" clip-rule="evenodd" d="M28.9787 16.7453C27.8862 16.744 26.8387 16.3094 26.0661 15.5369C25.2935 14.7643 24.8589 13.7168 24.8577 12.6242C24.8589 11.5318 25.2934 10.4844 26.0659 9.71185C26.8383 8.9393 27.8856 8.50463 28.9781 8.50317C30.0706 8.50426 31.1182 8.93868 31.8909 9.71112C32.6636 10.4836 33.0984 11.531 33.0998 12.6236C33.0987 13.7163 32.6642 14.7639 31.8916 15.5366C31.119 16.3094 30.0714 16.744 28.9787 16.7453ZM28.9787 9.66182C28.1939 9.66254 27.4415 9.97458 26.8865 10.5294C26.3315 11.0843 26.0193 11.8367 26.0184 12.6215C26.0191 13.4064 26.3312 14.159 26.8862 14.714C27.4413 15.269 28.1938 15.5811 28.9787 15.5819C29.7635 15.581 30.5159 15.2688 31.0708 14.7138C31.6257 14.1588 31.9377 13.4063 31.9384 12.6215C31.9375 11.8368 31.6254 11.0845 31.0705 10.5297C30.5157 9.97484 29.7634 9.66272 28.9787 9.66182ZM24.6856 34.8949C24.6232 34.8948 24.5613 34.885 24.5018 34.8661L15.919 32.0031C15.8033 31.9643 15.7028 31.8902 15.6317 31.7911C15.5606 31.6921 15.5224 31.5731 15.5227 31.4512V14.764C15.5226 14.672 15.5445 14.5813 15.5863 14.4995C15.6282 14.4176 15.689 14.3468 15.7636 14.2931C15.8382 14.2393 15.9245 14.204 16.0154 14.1902C16.1063 14.1763 16.1992 14.1843 16.2865 14.2134L23.8396 16.7309C23.979 16.7772 24.0957 16.8747 24.1659 17.0038C24.4587 17.5433 24.7994 18.1357 25.184 18.7644C25.2393 18.8555 25.2684 18.9601 25.2683 19.0667V34.3142C25.2684 34.3906 25.2534 34.4664 25.2241 34.537C25.1948 34.6076 25.1519 34.6718 25.0977 34.7257C25.0436 34.7797 24.9793 34.8224 24.9085 34.8514C24.8378 34.8805 24.762 34.8952 24.6856 34.8949ZM16.6834 31.035L24.1056 33.51V19.2292C23.8123 18.7452 23.5284 18.2556 23.2541 17.7607L16.6834 15.5668V31.035Z" fill="#1F92BF"/>
<path fill-rule="evenodd" clip-rule="evenodd" d="M24.6857 34.8948C24.6094 34.8949 24.5338 34.88 24.4633 34.8508C24.3929 34.8217 24.3288 34.7789 24.2749 34.725C24.2209 34.671 24.1782 34.607 24.149 34.5365C24.1198 34.466 24.1049 34.3904 24.105 34.3142V19.0667C24.1052 18.9401 24.1467 18.8171 24.2232 18.7163C24.2998 18.6155 24.4071 18.5425 24.529 18.5084C24.6508 18.4742 24.7805 18.4808 24.8983 18.5271C25.016 18.5735 25.1154 18.657 25.1814 18.765C26.0959 20.2685 27.0996 21.7562 27.982 23.0691C28.3474 23.6135 28.6833 24.1112 28.9761 24.5569C29.2688 24.1112 29.6048 23.6135 29.9702 23.0691C30.8553 21.7562 31.8562 20.2685 32.7708 18.7643C32.8364 18.6558 32.9359 18.5717 33.0539 18.525C33.1718 18.4784 33.3019 18.4717 33.424 18.506C33.5462 18.5403 33.6537 18.6137 33.7301 18.715C33.8066 18.8163 33.8477 18.9398 33.8472 19.0667V31.4539C33.8469 31.5757 33.8085 31.6944 33.7373 31.7933C33.6661 31.8922 33.5657 31.9662 33.4502 32.0051L24.8674 34.8661C24.8087 34.8854 24.7474 34.8951 24.6857 34.8948ZM25.2664 21.0789V33.5093L32.6885 31.035V21.0789C32.0914 22.0024 31.4888 22.8957 30.9348 23.7198C30.4354 24.4517 29.947 25.1911 29.4697 25.9376C29.4172 26.0211 29.3444 26.09 29.2581 26.1377C29.1717 26.1854 29.0747 26.2105 28.9761 26.2105C28.8778 26.2107 28.7811 26.1857 28.6951 26.138C28.6092 26.0902 28.5369 26.0212 28.4852 25.9376C28.1102 25.3378 27.6049 24.5877 27.0194 23.7198C26.4661 22.895 25.8663 22.0024 25.2664 21.0789Z" fill="#1F92BF"/>
<path fill-rule="evenodd" clip-rule="evenodd" d="M41.854 34.8949C41.7916 34.8948 41.7297 34.8851 41.6703 34.8661L33.0867 32.0051C32.9711 31.9665 32.8706 31.8925 32.7995 31.7936C32.7284 31.6946 32.6902 31.5758 32.6904 31.4539V19.0667C32.6904 18.9605 32.7199 18.8562 32.7754 18.7651C33.6311 17.3548 34.2577 16.1838 34.6882 15.1856C34.7453 15.0519 34.8506 14.9445 34.9832 14.8848C35.1158 14.8251 35.266 14.8175 35.404 14.8634L42.0377 17.0744C42.1533 17.113 42.2538 17.187 42.3249 17.286C42.3961 17.3849 42.4342 17.5038 42.434 17.6256V34.3142C42.434 34.468 42.3729 34.6156 42.2641 34.7243C42.1554 34.8331 42.0078 34.8949 41.854 34.8949ZM33.8518 31.035L41.2733 33.51V18.0431L35.5349 16.1304C35.1167 17.0298 34.56 18.05 33.8511 19.2278L33.8518 31.035Z" fill="#1F92BF"/>
</svg>
