<svg width="42" height="49" viewBox="0 0 42 49" fill="none" xmlns="http://www.w3.org/2000/svg">
<circle cx="20.9756" cy="20.425" r="19.8789" fill="#1F92BF" stroke="white"/>
<circle cx="20.9755" cy="44.9418" r="3.02434" fill="#1F92BF" stroke="white"/>
<g clip-path="url(#clip0_229_5058)">
<path fill-rule="evenodd" clip-rule="evenodd" d="M30.2726 31.6946H11.6787C10.8926 31.6946 10.2529 31.0549 10.2529 30.2689V19.3751C10.2529 19.2148 10.383 19.0847 10.5433 19.0847H31.4079C31.5682 19.0847 31.6983 19.2148 31.6983 19.3751V30.269C31.6986 31.0552 31.0586 31.6946 30.2726 31.6946ZM10.8336 19.6655V30.269C10.8336 30.7351 11.2127 31.1138 11.6785 31.1138H30.2724C30.7385 31.1138 31.1174 30.7348 31.1174 30.269V19.6654H10.8336V19.6655Z" fill="white"/>
<path fill-rule="evenodd" clip-rule="evenodd" d="M33.0757 19.6655H8.87537C8.71506 19.6655 8.58496 19.5354 8.58496 19.3751V16.7494C8.58496 16.5891 8.71506 16.459 8.87537 16.459H33.0757C33.236 16.459 33.3661 16.5891 33.3661 16.7494V19.3751C33.3661 19.5354 33.236 19.6655 33.0757 19.6655ZM9.16578 19.0847H32.7853V17.0398H9.16578V19.0847ZM29.6337 33.4689H26.0673C25.907 33.4689 25.7769 33.3386 25.7769 33.1785V31.4042C25.7769 31.2439 25.9072 31.1138 26.0673 31.1138H29.6337C29.794 31.1138 29.9241 31.2441 29.9241 31.4042V33.1785C29.9241 33.3388 29.794 33.4689 29.6337 33.4689ZM26.3577 32.8878H29.343V31.6945H26.3577V32.8878ZM15.8836 33.4689H12.3176C12.1573 33.4689 12.0272 33.3386 12.0272 33.1785V31.4042C12.0272 31.2439 12.1573 31.1138 12.3176 31.1138H15.8836C16.0439 31.1138 16.174 31.2441 16.174 31.4042V33.1785C16.174 33.3388 16.0442 33.4689 15.8836 33.4689ZM12.608 32.8878H15.5932V31.6945H12.608V32.8878Z" fill="white"/>
<path fill-rule="evenodd" clip-rule="evenodd" d="M30.042 17.0399H27.8422C27.6819 17.0399 27.5518 16.9098 27.5518 16.7495V10.9414C27.5518 10.5504 27.8702 10.2319 28.2614 10.2319H29.6232C30.0143 10.2319 30.3327 10.5502 30.3327 10.9414V16.7497C30.3323 16.91 30.2023 17.0401 30.0419 17.0401L30.042 17.0399ZM28.1326 16.4591H29.7513V10.9414C29.7513 10.8717 29.6926 10.8127 29.6229 10.8127H28.2611C28.1914 10.8127 28.1324 10.8717 28.1324 10.9414V16.4591H28.1326Z" fill="white"/>
<path fill-rule="evenodd" clip-rule="evenodd" d="M31.8338 12.3208H26.0496C25.6672 12.3208 25.6674 11.74 26.0496 11.74H31.8338C32.2161 11.74 32.2161 12.3208 31.8338 12.3208ZM31.8338 13.9263H26.0496C25.6672 13.9263 25.6674 13.3455 26.0496 13.3455H31.8338C32.2161 13.3455 32.2161 13.9263 31.8338 13.9263ZM31.8338 15.5316H26.0496C25.6672 15.5316 25.6674 14.9508 26.0496 14.9508H31.8338C32.2161 14.9508 32.2161 15.5316 31.8338 15.5316ZM22.0752 17.0399H19.8754C19.7151 17.0399 19.585 16.9098 19.585 16.7495V10.9414C19.585 10.5504 19.9032 10.2319 20.2944 10.2319H21.656C22.047 10.2319 22.3658 10.5502 22.3658 10.9414V16.7497C22.3658 16.91 22.2355 17.0401 22.0751 17.0401L22.0752 17.0399ZM20.1658 16.4591H21.7848V10.9414C21.7848 10.8717 21.7258 10.8127 21.6561 10.8127H20.2946C20.2249 10.8127 20.1659 10.8717 20.1659 10.9414V16.4591H20.1658Z" fill="white"/>
<path fill-rule="evenodd" clip-rule="evenodd" d="M23.8678 12.3208H18.084C17.7017 12.3208 17.7017 11.74 18.084 11.74H23.8678C24.2501 11.74 24.2501 12.3208 23.8678 12.3208ZM23.8678 13.9263H18.084C17.7017 13.9263 17.7017 13.3455 18.084 13.3455H23.8678C24.2501 13.3455 24.2501 13.9263 23.8678 13.9263ZM23.8678 15.5316H18.084C17.7017 15.5316 17.7017 14.9508 18.084 14.9508H23.8678C24.2501 14.9508 24.2501 15.5316 23.8678 15.5316ZM14.1095 17.0399H11.9095C11.7492 17.0399 11.6191 16.9098 11.6191 16.7495V10.9414C11.6191 10.5504 11.9373 10.2319 12.3283 10.2319H13.6903C14.0814 10.2319 14.3998 10.5502 14.3998 10.9414V16.7497C14.4001 16.91 14.27 17.0401 14.1097 17.0401L14.1095 17.0399ZM12.2 16.4591H13.819V10.9414C13.819 10.8717 13.76 10.8127 13.6903 10.8127H12.3285C12.2588 10.8127 12.2 10.8717 12.2 10.9414V16.4591Z" fill="white"/>
<path fill-rule="evenodd" clip-rule="evenodd" d="M15.901 12.3208H10.1168C9.7345 12.3208 9.7345 11.74 10.1168 11.74H15.901C16.2832 11.74 16.2835 12.3208 15.901 12.3208ZM15.901 13.9263H10.1168C9.7345 13.9263 9.7345 13.3455 10.1168 13.3455H15.901C16.2832 13.3455 16.2835 13.9263 15.901 13.9263ZM15.901 15.5315H10.1168C9.7345 15.5315 9.7345 14.9507 10.1168 14.9507H15.901C16.2832 14.9507 16.2835 15.5315 15.901 15.5315ZM25.6947 29.1227H16.2557C16.0954 29.1227 15.9653 28.9925 15.9653 28.8323V21.2386C15.9653 21.0783 16.0954 20.9482 16.2557 20.9482H25.6947C25.855 20.9482 25.9851 21.0783 25.9851 21.2386V28.8322C25.9852 28.9925 25.855 29.1227 25.6947 29.1227ZM16.5461 28.5418H25.4043V21.529H16.5461V28.5418ZM12.5122 29.1227C12.3519 29.1227 12.2218 28.9925 12.2218 28.8323V21.2386C12.2218 20.8563 12.8026 20.8563 12.8026 21.2386V28.8322C12.8026 28.9925 12.6728 29.1227 12.5122 29.1227ZM14.2866 29.1227C14.1263 29.1227 13.9962 28.9925 13.9962 28.8323V21.2386C13.9962 20.8563 14.577 20.8563 14.577 21.2386V28.8322C14.5767 28.9925 14.4469 29.1227 14.2866 29.1227ZM27.6641 29.1227C27.5038 29.1227 27.3737 28.9925 27.3737 28.8323V21.2386C27.3737 20.8563 27.9545 20.8563 27.9545 21.2386V28.8322C27.9545 28.9925 27.8244 29.1227 27.6641 29.1227ZM29.4383 29.1227C29.278 29.1227 29.1479 28.9925 29.1479 28.8323V21.2386C29.1479 20.8563 29.7287 20.8563 29.7287 21.2386V28.8322C29.7287 28.9925 29.5988 29.1227 29.4383 29.1227Z" fill="white"/>
<path fill-rule="evenodd" clip-rule="evenodd" d="M19.5398 27.8961C19.3597 27.8961 19.1856 27.7252 19.2752 27.4756L19.7907 25.6886C19.366 25.6802 18.8995 25.7477 18.7691 25.5341C18.7436 25.4925 18.7291 25.4451 18.7269 25.3964C18.7246 25.3476 18.7347 25.2991 18.7561 25.2553L20.1823 22.3377C20.2062 22.2889 20.2433 22.2477 20.2894 22.2189C20.3355 22.1901 20.3887 22.1748 20.4431 22.1748H22.2493C22.4752 22.1748 22.6149 22.423 22.4976 22.6161L21.6116 24.0739L22.9789 24.2855C23.2245 24.3234 23.3118 24.6346 23.1217 24.7946C21.6647 26.022 20.0406 27.4352 19.8099 27.7135C19.7522 27.8106 19.6931 27.8961 19.5398 27.8961ZM19.4775 25.1014C20.7168 25.1261 20.5886 25.0179 20.1292 26.6111C20.7573 26.0442 21.6143 25.3099 22.2605 24.7618L21.0935 24.5811C20.8895 24.5498 20.7825 24.3199 20.8896 24.1435L21.733 22.7556H20.6246L19.4777 25.1014H19.4775Z" fill="white"/>
</g>
<defs>
<clipPath id="clip0_229_5058">
<rect width="24.7813" height="24.7813" fill="white" transform="translate(8.58496 9.45972)"/>
</clipPath>
</defs>
</svg>
