<svg width="19" height="19" viewBox="0 0 19 19" fill="none" xmlns="http://www.w3.org/2000/svg">
<path d="M16.3404 7.75506H11.2144V2.62907C11.2144 1.59007 10.3712 0.746826 9.33217 0.746826C8.29317 0.746826 7.44992 1.59007 7.44992 2.62907V7.75506H2.32268C1.28368 7.75506 0.44043 8.59831 0.44043 9.63731C0.44043 10.6763 1.28368 11.5196 2.32268 11.5196H7.44992V16.6455C7.44992 17.6845 8.29317 18.5278 9.33217 18.5278C10.3712 18.5278 11.2144 17.6845 11.2144 16.6455V11.5196H16.3404C17.3794 11.5196 18.2227 10.6763 18.2227 9.63731C18.2227 8.59831 17.3794 7.75506 16.3404 7.75506Z" fill="#31B1F0"/>
</svg>
