<svg width="60" height="60" viewBox="0 0 60 60" fill="none" xmlns="http://www.w3.org/2000/svg">
<path d="M46.2018 50.3467C46.2018 50.8371 46.3966 51.3074 46.7434 51.6541C47.0901 52.0009 47.5604 52.1957 48.0508 52.1957C48.5412 52.1957 49.0116 52.0009 49.3583 51.6541C49.7051 51.3074 49.8999 50.8371 49.8999 50.3467L49.8999 9.66734C49.8999 9.17694 49.7051 8.70662 49.3583 8.35986C49.0116 8.01309 48.5412 7.81828 48.0508 7.81828C47.5604 7.81828 47.0901 8.01309 46.7434 8.35986C46.3966 8.70662 46.2018 9.17694 46.2018 9.66734L46.2018 50.3467ZM30.8176 51.4314C33.6849 53.3964 37.5728 51.3476 37.5728 47.8763L37.5728 12.1402C37.5728 8.65652 33.6553 6.60776 30.793 8.59735L4.91104 26.5998C4.33779 26.9986 3.86991 27.5306 3.54759 28.1501C3.22527 28.7696 3.05814 29.4581 3.06057 30.1565C3.06299 30.8548 3.23489 31.5421 3.56151 32.1594C3.88812 32.7766 4.35968 33.3054 4.93569 33.7002L30.8176 51.4314Z" fill="#00BAFF"/>
</svg>
