<svg width="57" height="41" viewBox="0 0 57 41" fill="none" xmlns="http://www.w3.org/2000/svg">
<path d="M40.9699 20.0799L32.8032 11.9132C32.5832 11.7007 32.2884 11.5831 31.9826 11.5857C31.6767 11.5884 31.384 11.7111 31.1677 11.9274C30.9514 12.1437 30.8287 12.4363 30.8261 12.7422C30.8234 13.0481 30.941 13.3428 31.1535 13.5629L37.3287 19.738H16.8117C16.5023 19.738 16.2055 19.8609 15.9867 20.0797C15.7679 20.2985 15.645 20.5953 15.645 20.9047C15.645 21.2141 15.7679 21.5109 15.9867 21.7296C16.2055 21.9484 16.5023 22.0714 16.8117 22.0714H37.3287L31.1535 28.2465C31.0421 28.3541 30.9532 28.4829 30.8921 28.6252C30.8309 28.7676 30.7987 28.9206 30.7974 29.0756C30.796 29.2305 30.8256 29.3841 30.8842 29.5275C30.9429 29.6708 31.0295 29.8011 31.1391 29.9107C31.2486 30.0202 31.3789 30.1068 31.5222 30.1655C31.6656 30.2241 31.8192 30.2537 31.9742 30.2523C32.1291 30.251 32.2822 30.2188 32.4245 30.1576C32.5668 30.0965 32.6956 30.0076 32.8032 29.8962L40.9699 21.7295C41.1886 21.5107 41.3114 21.214 41.3114 20.9047C41.3114 20.5953 41.1886 20.2986 40.9699 20.0799Z" fill="#1F92BF"/>
<path d="M5.47827 1.40479H51.4783C53.9636 1.40479 55.9783 3.4195 55.9783 5.90479V35.9048C55.9783 38.3901 53.9636 40.4048 51.4783 40.4048H5.47827C2.99299 40.4048 0.978271 38.3901 0.978271 35.9048V5.90479C0.978271 3.4195 2.99299 1.40479 5.47827 1.40479Z" stroke="#31B1F0"/>
</svg>
