<svg width="57" height="41" viewBox="0 0 57 41" fill="none" xmlns="http://www.w3.org/2000/svg">
<path d="M51.9783 39.6094L5.97827 39.6094C3.49299 39.6094 1.47827 37.5947 1.47827 35.1094L1.47827 5.10938C1.47827 2.6241 3.49299 0.60938 5.97827 0.609379L51.9783 0.609375C54.4635 0.609376 56.4783 2.62409 56.4783 5.10938L56.4783 35.1094C56.4783 37.5947 54.4636 39.6094 51.9783 39.6094Z" stroke="#31B1F0"/>
<path d="M26.3682 32.7873C24.1838 32.7873 22.4073 31.0098 22.4073 28.8254C22.4073 26.6423 24.1838 24.8645 26.3691 24.8636H28.2182V21.1657H20.5585C18.3732 21.1657 16.5967 19.3892 16.5967 17.2039C16.5967 15.0185 18.3732 13.242 20.5585 13.242H28.2182V11.3932C28.2182 9.21011 29.9947 7.4314 32.1801 7.4314C34.3642 7.4314 36.1419 9.20789 36.1419 11.3932C36.1419 13.5786 34.3642 15.3551 32.1801 15.3551H30.331V19.0529H37.9907C40.1751 19.0529 41.9525 20.8294 41.9525 23.0148C41.9525 25.1989 40.1751 26.9766 37.9907 26.9766H30.331V28.8254C30.331 31.0098 28.5536 32.7873 26.3682 32.7873ZM26.3691 26.9766C25.3498 26.9776 24.5204 27.807 24.5204 28.8254C24.5207 29.3155 24.7155 29.7854 25.0619 30.132C25.4083 30.4786 25.8781 30.6736 26.3682 30.6742C26.8586 30.6739 27.3288 30.4791 27.6756 30.1325C28.0225 29.7859 28.2176 29.3158 28.2182 28.8254V26.9766H26.3691ZM30.331 24.8636H37.9907C38.4808 24.863 38.9507 24.668 39.2973 24.3214C39.6439 23.9748 39.8389 23.5049 39.8394 23.0148C39.8389 22.5246 39.644 22.0546 39.2974 21.708C38.9508 21.3613 38.4809 21.1663 37.9907 21.1657H30.331V24.8636ZM20.5585 15.3551C20.0684 15.3557 19.5985 15.5507 19.2519 15.8972C18.9053 16.2438 18.7104 16.7137 18.7098 17.2039C18.7103 17.6941 18.9052 18.164 19.2518 18.5107C19.5984 18.8573 20.0683 19.0524 20.5585 19.0529H28.2182V15.3551H20.5585ZM30.331 13.242H32.1801C33.1994 13.242 34.0288 12.4126 34.0288 11.3932C34.0288 10.3739 33.1994 9.54449 32.1801 9.54449C31.6899 9.54499 31.2199 9.73992 30.8732 10.0865C30.5266 10.4331 30.3316 10.9031 30.331 11.3932V13.242Z" fill="#1F92BF"/>
</svg>
