<svg width="21" height="20" viewBox="0 0 21 20" fill="none" xmlns="http://www.w3.org/2000/svg">
<path d="M16.9349 9.15032C16.7385 7.73732 16.083 6.42808 15.0694 5.42428C14.0557 4.42048 12.7402 3.77779 11.3253 3.59523C9.91046 3.41267 8.47484 3.70036 7.23958 4.41398C6.00433 5.1276 5.03797 6.22757 4.48936 7.54444M4.08789 4.33269V7.54444H7.29964M4.08789 10.7562C4.28426 12.1692 4.93975 13.4784 5.95341 14.4822C6.96706 15.486 8.28263 16.1287 9.69748 16.3113C11.1123 16.4938 12.5479 16.2061 13.7832 15.4925C15.0185 14.7789 15.9848 13.6789 16.5334 12.3621M16.9349 15.5738V12.3621H13.7231" stroke="#31B1F0" stroke-width="1.60588" stroke-linecap="round" stroke-linejoin="round"/>
</svg>
