<svg width="54" height="64" viewBox="0 0 54 64" fill="none" xmlns="http://www.w3.org/2000/svg">
<circle cx="26.7278" cy="26.8188" r="26.3152" fill="white"/>
<circle cx="26.7277" cy="58.4772" r="4.55096" fill="white"/>
<g clip-path="url(#clip0_77_1036)">
<path fill-rule="evenodd" clip-rule="evenodd" d="M38.7326 41.371H14.7224C13.7073 41.371 12.8813 40.5449 12.8813 39.5299V25.4629C12.8813 25.2559 13.0493 25.0879 13.2563 25.0879H40.1987C40.4057 25.0879 40.5737 25.2559 40.5737 25.4629V39.5301C40.5741 40.5453 39.7476 41.371 38.7326 41.371ZM13.6312 25.8379V39.5301C13.6312 40.132 14.1207 40.621 14.7222 40.621H38.7324C39.3343 40.621 39.8235 40.1316 39.8235 39.5301V25.8377H13.6312V25.8379Z" fill="#A68E48"/>
<path fill-rule="evenodd" clip-rule="evenodd" d="M42.3524 25.8378H11.1025C10.8955 25.8378 10.7275 25.6698 10.7275 25.4628V22.0723C10.7275 21.8653 10.8955 21.6973 11.1025 21.6973H42.3524C42.5594 21.6973 42.7274 21.8653 42.7274 22.0723V25.4628C42.7274 25.6698 42.5594 25.8378 42.3524 25.8378ZM11.4775 25.0878H41.9774V22.4473H11.4775V25.0878ZM37.9076 43.662H33.3024C33.0954 43.662 32.9274 43.4939 32.9274 43.287V40.996C32.9274 40.789 33.0956 40.621 33.3024 40.621H37.9076C38.1146 40.621 38.2826 40.7892 38.2826 40.996V43.287C38.2826 43.494 38.1146 43.662 37.9076 43.662ZM33.6774 42.9117H37.5323V41.3708H33.6774V42.9117ZM20.1523 43.662H15.5474C15.3404 43.662 15.1724 43.4939 15.1724 43.287V40.996C15.1724 40.789 15.3404 40.621 15.5474 40.621H20.1523C20.3593 40.621 20.5273 40.7892 20.5273 40.996V43.287C20.5273 43.494 20.3596 43.662 20.1523 43.662ZM15.9224 42.9117H19.7773V41.3708H15.9224V42.9117Z" fill="#A68E48"/>
<path fill-rule="evenodd" clip-rule="evenodd" d="M38.4344 22.4474H35.5938C35.3868 22.4474 35.2188 22.2794 35.2188 22.0724V14.5724C35.2188 14.0674 35.6299 13.6562 36.1351 13.6562H37.8936C38.3986 13.6562 38.8098 14.0673 38.8098 14.5724V22.0726C38.8092 22.2796 38.6414 22.4476 38.4342 22.4476L38.4344 22.4474ZM35.9688 21.6974H38.059V14.5724C38.059 14.4824 37.9833 14.4063 37.8933 14.4063H36.1347C36.0447 14.4063 35.9686 14.4824 35.9686 14.5724V21.6974H35.9688Z" fill="#A68E48"/>
<path fill-rule="evenodd" clip-rule="evenodd" d="M40.7489 16.3536H33.2798C32.7862 16.3536 32.7863 15.6036 33.2798 15.6036H40.7489C41.2426 15.6036 41.2426 16.3536 40.7489 16.3536ZM40.7489 18.4268H33.2798C32.7862 18.4268 32.7863 17.6768 33.2798 17.6768H40.7489C41.2426 17.6768 41.2426 18.4268 40.7489 18.4268ZM40.7489 20.4997H33.2798C32.7862 20.4997 32.7863 19.7496 33.2798 19.7496H40.7489C41.2426 19.7496 41.2426 20.4997 40.7489 20.4997ZM28.1478 22.4474H25.3071C25.1001 22.4474 24.9321 22.2794 24.9321 22.0724V14.5724C24.9321 14.0674 25.3431 13.6562 25.8483 13.6562H27.6065C28.1114 13.6562 28.523 14.0673 28.523 14.5724V22.0726C28.523 22.2796 28.3548 22.4476 28.1476 22.4476L28.1478 22.4474ZM25.6821 21.6974H27.7728V14.5724C27.7728 14.4824 27.6966 14.4063 27.6066 14.4063H25.8484C25.7584 14.4063 25.6823 14.4824 25.6823 14.5724V21.6974H25.6821Z" fill="#A68E48"/>
<path fill-rule="evenodd" clip-rule="evenodd" d="M30.4616 16.3536H22.9931C22.4994 16.3536 22.4994 15.6036 22.9931 15.6036H30.4616C30.9553 15.6036 30.9553 16.3536 30.4616 16.3536ZM30.4616 18.4268H22.9931C22.4994 18.4268 22.4994 17.6768 22.9931 17.6768H30.4616C30.9553 17.6768 30.9553 18.4268 30.4616 18.4268ZM30.4616 20.4997H22.9931C22.4994 20.4997 22.4994 19.7496 22.9931 19.7496H30.4616C30.9553 19.7496 30.9553 20.4997 30.4616 20.4997ZM17.8608 22.4474H15.02C14.813 22.4474 14.645 22.2794 14.645 22.0724V14.5724C14.645 14.0674 15.0558 13.6562 15.5608 13.6562H17.3195C17.8245 13.6562 18.2357 14.0673 18.2357 14.5724V22.0726C18.236 22.2796 18.068 22.4476 17.861 22.4476L17.8608 22.4474ZM15.395 21.6974H17.4857V14.5724C17.4857 14.4824 17.4095 14.4063 17.3195 14.4063H15.561C15.471 14.4063 15.395 14.4824 15.395 14.5724V21.6974Z" fill="#A68E48"/>
<path fill-rule="evenodd" clip-rule="evenodd" d="M20.1748 16.3535H12.7057C12.212 16.3535 12.212 15.6035 12.7057 15.6035H20.1748C20.6683 15.6035 20.6687 16.3535 20.1748 16.3535ZM20.1748 18.4267H12.7057C12.212 18.4267 12.212 17.6767 12.7057 17.6767H20.1748C20.6683 17.6767 20.6687 18.4267 20.1748 18.4267ZM20.1748 20.4995H12.7057C12.212 20.4995 12.212 19.7495 12.7057 19.7495H20.1748C20.6683 19.7495 20.6687 20.4995 20.1748 20.4995ZM32.8214 38.0498H20.6329C20.4259 38.0498 20.2579 37.8816 20.2579 37.6748V27.8691C20.2579 27.6621 20.4259 27.4941 20.6329 27.4941H32.8214C33.0284 27.4941 33.1964 27.6621 33.1964 27.8691V37.6746C33.1965 37.8816 33.0284 38.0498 32.8214 38.0498ZM21.0079 37.2996H32.4464V28.2441H21.0079V37.2996ZM15.7989 38.0498C15.5919 38.0498 15.4239 37.8816 15.4239 37.6748V27.8691C15.4239 27.3754 16.1739 27.3754 16.1739 27.8691V37.6746C16.1739 37.8816 16.0063 38.0498 15.7989 38.0498ZM18.0902 38.0498C17.8832 38.0498 17.7152 37.8816 17.7152 37.6748V27.8691C17.7152 27.3754 18.4652 27.3754 18.4652 27.8691V37.6746C18.4648 37.8816 18.2972 38.0498 18.0902 38.0498ZM35.3644 38.0498C35.1574 38.0498 34.9894 37.8816 34.9894 37.6748V27.8691C34.9894 27.3754 35.7394 27.3754 35.7394 27.8691V37.6746C35.7394 37.8816 35.5714 38.0498 35.3644 38.0498ZM37.6555 38.0498C37.4485 38.0498 37.2805 37.8816 37.2805 37.6748V27.8691C37.2805 27.3754 38.0305 27.3754 38.0305 27.8691V37.6746C38.0305 37.8816 37.8627 38.0498 37.6555 38.0498Z" fill="#A68E48"/>
<path fill-rule="evenodd" clip-rule="evenodd" d="M24.8734 36.466C24.6409 36.466 24.4161 36.2453 24.5317 35.923L25.1974 33.6155C24.6489 33.6046 24.0465 33.6918 23.8781 33.416C23.8453 33.3622 23.8266 33.301 23.8236 33.2381C23.8207 33.1752 23.8337 33.1125 23.8614 33.056L25.7031 29.2885C25.7339 29.2254 25.7818 29.1723 25.8413 29.1351C25.9008 29.0979 25.9696 29.0781 26.0398 29.0781H28.3721C28.6639 29.0781 28.8443 29.3986 28.6928 29.6479L27.5486 31.5304L29.3143 31.8036C29.6314 31.8526 29.7441 32.2544 29.4986 32.461C27.6173 34.046 25.5201 35.8709 25.2221 36.2302C25.1477 36.3556 25.0714 36.466 24.8734 36.466ZM24.7929 32.8572C26.3933 32.8891 26.2277 32.7494 25.6344 34.8066C26.4456 34.0746 27.5522 33.1265 28.3866 32.4186L26.8796 32.1854C26.6162 32.1449 26.478 31.8481 26.6164 31.6203L27.7054 29.8281H26.2742L24.7931 32.8572H24.7929Z" fill="#A68E48"/>
</g>
<defs>
<clipPath id="clip0_77_1036">
<rect width="32" height="32" fill="white" transform="translate(10.7275 12.6592)"/>
</clipPath>
</defs>
</svg>
