<svg width="42" height="50" viewBox="0 0 42 50" fill="none" xmlns="http://www.w3.org/2000/svg">
<circle cx="21.311" cy="21.1672" r="20.3789" fill="#1F92BF"/>
<circle cx="21.311" cy="45.684" r="3.52434" fill="#1F92BF"/>
<g clip-path="url(#clip0_72_684)">
<path fill-rule="evenodd" clip-rule="evenodd" d="M30.608 32.4368H12.0141C11.228 32.4368 10.5884 31.7971 10.5884 31.0111V20.1173C10.5884 19.957 10.7185 19.8269 10.8788 19.8269H31.7434C31.9037 19.8269 32.0338 19.957 32.0338 20.1173V31.0112C32.0341 31.7973 31.394 32.4368 30.608 32.4368ZM11.169 20.4077V31.0112C11.169 31.4773 11.5482 31.856 12.014 31.856H30.6079C31.074 31.856 31.4528 31.477 31.4528 31.0112V20.4076H11.169V20.4077Z" fill="white"/>
<path fill-rule="evenodd" clip-rule="evenodd" d="M33.4112 20.4077H9.21082C9.05051 20.4077 8.92041 20.2776 8.92041 20.1173V17.4916C8.92041 17.3313 9.05051 17.2012 9.21082 17.2012H33.4112C33.5715 17.2012 33.7016 17.3313 33.7016 17.4916V20.1173C33.7016 20.2776 33.5715 20.4077 33.4112 20.4077ZM9.50122 19.8269H33.1208V17.782H9.50122V19.8269ZM29.9691 34.211H26.4028C26.2425 34.211 26.1124 34.0808 26.1124 33.9206V32.1464C26.1124 31.9861 26.2426 31.856 26.4028 31.856H29.9691C30.1294 31.856 30.2595 31.9862 30.2595 32.1464V33.9206C30.2595 34.0809 30.1294 34.211 29.9691 34.211ZM26.6932 33.6299H29.6784V32.4367H26.6932V33.6299ZM16.2191 34.211H12.653C12.4927 34.211 12.3626 34.0808 12.3626 33.9206V32.1464C12.3626 31.9861 12.4927 31.856 12.653 31.856H16.2191C16.3794 31.856 16.5095 31.9862 16.5095 32.1464V33.9206C16.5095 34.0809 16.3797 34.211 16.2191 34.211ZM12.9434 33.6299H15.9287V32.4367H12.9434V33.6299Z" fill="white"/>
<path fill-rule="evenodd" clip-rule="evenodd" d="M30.3772 17.7821H28.1774C28.0171 17.7821 27.887 17.652 27.887 17.4917V11.6836C27.887 11.2926 28.2054 10.9741 28.5966 10.9741H29.9584C30.3495 10.9741 30.6679 11.2924 30.6679 11.6836V17.4919C30.6675 17.6522 30.5375 17.7823 30.3771 17.7823L30.3772 17.7821ZM28.4678 17.2013H30.0865V11.6836C30.0865 11.6139 30.0278 11.5549 29.9581 11.5549H28.5963C28.5266 11.5549 28.4676 11.6139 28.4676 11.6836V17.2013H28.4678Z" fill="white"/>
<path fill-rule="evenodd" clip-rule="evenodd" d="M32.1694 13.063H26.3853C26.0029 13.063 26.0031 12.4822 26.3853 12.4822H32.1694C32.5518 12.4822 32.5518 13.063 32.1694 13.063ZM32.1694 14.6685H26.3853C26.0029 14.6685 26.0031 14.0877 26.3853 14.0877H32.1694C32.5518 14.0877 32.5518 14.6685 32.1694 14.6685ZM32.1694 16.2738H26.3853C26.0029 16.2738 26.0031 15.6929 26.3853 15.6929H32.1694C32.5518 15.6929 32.5518 16.2738 32.1694 16.2738ZM22.4109 17.7821H20.2111C20.0508 17.7821 19.9207 17.652 19.9207 17.4917V11.6836C19.9207 11.2926 20.2389 10.9741 20.6301 10.9741H21.9917C22.3827 10.9741 22.7014 11.2924 22.7014 11.6836V17.4919C22.7014 17.6522 22.5712 17.7823 22.4108 17.7823L22.4109 17.7821ZM20.5015 17.2013H22.1205V11.6836C22.1205 11.6139 22.0615 11.5549 21.9918 11.5549H20.6303C20.5606 11.5549 20.5016 11.6139 20.5016 11.6836V17.2013H20.5015Z" fill="white"/>
<path fill-rule="evenodd" clip-rule="evenodd" d="M24.2028 13.063H18.419C18.0367 13.063 18.0367 12.4822 18.419 12.4822H24.2028C24.5851 12.4822 24.5851 13.063 24.2028 13.063ZM24.2028 14.6685H18.419C18.0367 14.6685 18.0367 14.0877 18.419 14.0877H24.2028C24.5851 14.0877 24.5851 14.6685 24.2028 14.6685ZM24.2028 16.2738H18.419C18.0367 16.2738 18.0367 15.6929 18.419 15.6929H24.2028C24.5851 15.6929 24.5851 16.2738 24.2028 16.2738ZM14.4445 17.7821H12.2445C12.0842 17.7821 11.9541 17.652 11.9541 17.4917V11.6836C11.9541 11.2926 12.2722 10.9741 12.6633 10.9741H14.0253C14.4163 10.9741 14.7348 11.2924 14.7348 11.6836V17.4919C14.735 17.6522 14.6049 17.7823 14.4446 17.7823L14.4445 17.7821ZM12.5349 17.2013H14.1539V11.6836C14.1539 11.6139 14.095 11.5549 14.0253 11.5549H12.6634C12.5937 11.5549 12.5349 11.6139 12.5349 11.6836V17.2013Z" fill="white"/>
<path fill-rule="evenodd" clip-rule="evenodd" d="M16.2367 13.063H10.4525C10.0702 13.063 10.0702 12.4822 10.4525 12.4822H16.2367C16.6189 12.4822 16.6192 13.063 16.2367 13.063ZM16.2367 14.6685H10.4525C10.0702 14.6685 10.0702 14.0877 10.4525 14.0877H16.2367C16.6189 14.0877 16.6192 14.6685 16.2367 14.6685ZM16.2367 16.2737H10.4525C10.0702 16.2737 10.0702 15.6929 10.4525 15.6929H16.2367C16.6189 15.6929 16.6192 16.2737 16.2367 16.2737ZM26.0304 29.8649H16.5914C16.4311 29.8649 16.301 29.7347 16.301 29.5745V21.9808C16.301 21.8205 16.4311 21.6904 16.5914 21.6904H26.0304C26.1907 21.6904 26.3208 21.8205 26.3208 21.9808V29.5744C26.3209 29.7347 26.1907 29.8649 26.0304 29.8649ZM16.8818 29.284H25.74V22.2712H16.8818V29.284ZM12.8479 29.8649C12.6876 29.8649 12.5575 29.7347 12.5575 29.5745V21.9808C12.5575 21.5985 13.1383 21.5985 13.1383 21.9808V29.5744C13.1383 29.7347 13.0085 29.8649 12.8479 29.8649ZM14.6223 29.8649C14.462 29.8649 14.3319 29.7347 14.3319 29.5745V21.9808C14.3319 21.5985 14.9127 21.5985 14.9127 21.9808V29.5744C14.9124 29.7347 14.7826 29.8649 14.6223 29.8649ZM27.9998 29.8649C27.8395 29.8649 27.7094 29.7347 27.7094 29.5745V21.9808C27.7094 21.5985 28.2902 21.5985 28.2902 21.9808V29.5744C28.2902 29.7347 28.1601 29.8649 27.9998 29.8649ZM29.774 29.8649C29.6137 29.8649 29.4836 29.7347 29.4836 29.5745V21.9808C29.4836 21.5985 30.0644 21.5985 30.0644 21.9808V29.5744C30.0644 29.7347 29.9345 29.8649 29.774 29.8649Z" fill="white"/>
<path fill-rule="evenodd" clip-rule="evenodd" d="M19.8753 28.6383C19.6952 28.6383 19.5211 28.4674 19.6107 28.2178L20.1262 26.4308C19.7014 26.4224 19.2349 26.4899 19.1045 26.2763C19.0791 26.2346 19.0646 26.1873 19.0623 26.1385C19.0601 26.0898 19.0701 26.0413 19.0916 25.9975L20.5178 23.0799C20.5416 23.0311 20.5787 22.9899 20.6248 22.9611C20.6709 22.9323 20.7242 22.917 20.7786 22.917H22.5847C22.8107 22.917 22.9504 23.1651 22.833 23.3583L21.947 24.8161L23.3144 25.0277C23.5599 25.0656 23.6472 25.3767 23.4571 25.5368C22.0002 26.7642 20.3761 28.1774 20.1453 28.4556C20.0877 28.5528 20.0286 28.6383 19.8753 28.6383ZM19.813 25.8436C21.0523 25.8683 20.9241 25.7601 20.4646 27.3533C21.0928 26.7864 21.9498 26.0521 22.5959 25.5039L21.4289 25.3233C21.2249 25.2919 21.1179 25.0621 21.2251 24.8857L22.0684 23.4978H20.9601L19.8131 25.8436H19.813Z" fill="white"/>
</g>
<defs>
<clipPath id="clip0_72_684">
<rect width="24.7813" height="24.7813" fill="white" transform="translate(8.92041 10.2019)"/>
</clipPath>
</defs>
</svg>
